<svg id="Maskot_og_Logotekst" data-name="Maskot og Logotekst" xmlns="http://www.w3.org/2000/svg" viewBox="0 0 1792.35 458.55"><defs><style>.cls-1{fill:#a45023;}.cls-2{fill:#f89c1f;}.cls-3{fill:#f4981f;}.cls-4{fill:#ffd858;}.cls-5{fill:#d46b2b;}.cls-6{fill:#070909;}.cls-7{fill:#d36b2b;}.cls-8{fill:#fff;}.cls-9{fill:#e78324;}.cls-10{fill:#3a3a3c;}.cls-11{fill:#363636;}.cls-12{fill:#84d4eb;}.cls-13{fill:#7c3f1a;}.cls-14{fill:#e8f4f8;}.cls-15{fill:#eff8fb;}.cls-16{fill:#bc3329;}.cls-17{fill:#a75224;}.cls-18{fill:#c96529;}.cls-19{fill:#f3849b;}.cls-20{fill:#fad2de;}.cls-21{fill:#8e928e;}.cls-22{fill:#a3a5a3;}.cls-23{fill:#d6961c;}.cls-24{fill:#a24f22;}.cls-25{fill:#feba16;}.cls-26{fill:#e3a626;}.cls-27{fill:#e0a82e;}.cls-28{fill:#f5b11a;}.cls-29{fill:#ecab1f;}.cls-30{fill:#efaf20;}.cls-31{fill:#dea62f;}.cls-32{fill:#78380f;}.cls-33{fill:#f5b016;}.cls-34{fill:#f0ab17;}.cls-35{fill:#d48d18;}.cls-36{fill:#e6a216;}.cls-37{fill:#f8aa00;}</style></defs><g id="Layer_2" data-name="Layer 2"><g id="Layer_1-2" data-name="Layer 1-2"><g id="Layer_2-2" data-name="Layer 2-2"><g id="Layer_1-2-2" data-name="Layer 1-2-2"><path id="p1-2" class="cls-1" d="M151.2,5.3c4.33-1,8.25.56,11.6,3.24,3.56-.7,6.72-.13,10.15.77C178.71,6.9,185,4.88,190.83,8c5.25-2.71,11.17-3.89,16.28-.17C213,6.19,219,6.17,223.18,11.16c4-2.59,8.5-3.49,12.81-1.11,3,1.63,4.36,4.3,5.67,7.3,3.83-1.54,8.33-1.34,11.58,1.38,2.13,1.62,3,3.83,4,6.21,3.77-1.32,7.4-1.36,10.85.84,2.76,1.61,3.62,4.16,5,6.84,4-1.54,8.38-1.25,11.73,1.55,2,1.63,2.9,3.79,4,6.07,4.2-1.39,8.61-1.18,12,1.89,2.88,2.45,3.78,5.83,3.72,9.52,4.29,1.36,8.19,3.12,11.11,6.68s4.06,7.55,4.5,11.91c3.57,0,6.73-.39,9.93,1.52C333.82,73.69,335.55,78,336,82c.25,1.32-.48,3.52.28,4.55a28,28,0,0,1,6.36,2.88c4.7,2.87,7,8.76,6.73,14.1a10.62,10.62,0,0,1,6,5.11c2.56,3.88,2.07,8.1,1.36,12.46,2,1.56,3.86,2.84,5,5.2,2.22,4.47,1.62,9,1.25,13.81.4,1.54,2,2.75,2.89,4.07,2.68,3.4,2.87,7.7,2.68,11.85,0,2.44-2.27,4.62-1.66,7,1.94,11.85,1.09,24.54-4.48,35.36-2,3.19-.35,7.16-2.32,10.58-.94,2-2.54,2.47-4.53,3,1.55,4.76,2.9,11.06,0,15.57-1.12,2-2.75,2-4.75,2.41,1.4,4.45,2.42,9.74.6,14.21-1.3,2.72-3.17,3.64-6.16,3.5,1.54,4.42,2.55,10.45.17,14.74-1.37,2.52-3.81,3-6.48,2.74,1.61,4.49,2.73,11.24-.59,15.19-2.4,2.76-5.35,2.14-8.36.86-1.67,6.14-3.46,9.39-8.22,13.63-1.78,6.1-5.23,12.89-12,14.39a33.41,33.41,0,0,0-5-1.59c.17-2.49.42-5,.75-7.44,1.9,0,1.17,2.52,1.71,3.81.15,2,1.59,3.55,3.65,2.73,4.73-2.16,7.87-7.86,8.8-12.8,1-9,1.5-17.92,2.13-26.93,0-4.36.74-9-.19-13.27l-.17-1.35a13.47,13.47,0,0,0,.75-3.37,319.89,319.89,0,0,0-2.78-45.14c-2.85-19.28-6.56-38.85-14.08-56.91a156.36,156.36,0,0,0-7.08-16.07A217.07,217.07,0,0,0,285.93,108a11.13,11.13,0,0,0-1.92-2.3c-1.93,3.58-4,7.24-5.58,11,2,4.18,4.46,8.15,6.4,12.39,1.14,2.77,3.55,3.53,5.75,5.33a51.18,51.18,0,0,1,13.87,17.82,71.54,71.54,0,0,1,3.28,51.61c-.46,4.23.58,8.87,1.29,13.06,0,8,.91,15.86.93,23.83-.79-.35-1.59-.68-2.39-1,.67-2.43,0-5.23-.09-7.74-.42-4.24-.07-8.43-1.47-12.32-.09-2.5.64-6.28-1-8.36-2.9,4.8-5.42,9.65-9.34,13.76-.91,1-1.86,2-2.81,2.92-.24,6,.77,11.94.77,18,.15,2.51-.23,5.27,1,7.49-.78.86-1.58,1.71-2.37,2.56-.21-8.65-.72-17.11-1.72-25.71l-.59.34a57.33,57.33,0,0,1-13.28,6.3c-.54,3.08,0,6,.36,9-.07,8.79.57,17.55.22,26.33l-.89,1.07c-1.07-5.67-1-11.62-1.31-17.38-.1-6-1-11.87-1.46-17.84l-.36-.24c-5.15.18-9.91-.52-15-1.06.7,5.66.48,11.5,1.78,17-.45,9,.43,18.09.34,27.11,0,3.26-.26,6.39.41,9.61-.51.53-1,1.07-1.49,1.62-1-10.69-.85-21.53-1.64-32.24-.34-3.38-.91-6.72-1-10.13a116.42,116.42,0,0,0-1.12-14.33c-6.49-3.13-11.32-7.19-16.24-12.38a574.88,574.88,0,0,1,5.77,62c0,5.93.23,11.85.06,17.78l-1.53.88-1.66-.65a78.35,78.35,0,0,0-10.59,4.16c.49,1.52,1,3,1.52,4.53l-2.5.33c-1.9-7.87-5.15-15.41-7.51-23.16-1.07-2.71-1.5-6.29-3.55-8.41.58-.92,1.16-1.83,1.71-2.76.63,1.23,1.27,2.46,1.91,3.69,5.68-2.46,10.74-6.34,16.11-9.42,1-.78,3.24-1.6,3.06-3.11-.06-5.35-.72-10.73-1.28-16.05-4.51,2.43-8.45,5.63-13.14,7.76.34-1.81.57-3.64.89-5.45l1.23.39A107.16,107.16,0,0,0,240,248.87l.29-.88c-.53-6.64-1.41-13.37-2.58-19.93-7.62,5-15.07,10.12-22.78,14.93a18.17,18.17,0,0,0-3.51,2.79c.18,1.1.37,2.2.54,3.3l-1.82.43c-2.4-8.81-5.19-17.51-7.56-26.33a14.22,14.22,0,0,0-1.53-3.8c-5.3,4.6-10.41,9.39-15.76,13.93-.22,2.24,1.49,4.91,2.12,7.08,1.45,3.34,2,7.25,3.75,10.39,2.65.9,6,.35,8.83.41a87.86,87.86,0,0,1-21.13,0c2.72.07,5.28.3,8-.37-1.06-5-2.85-9.82-4.38-14.67-3.19,1.67-5.78,4.4-8.74,6.54-2.28,1.87-5.21,3.54-6.77,6,.67.38,1.33.75,2,1.11-3-.4-6-1-9-1.67,3.32.76,4.69-1.39,7.13-3a373.65,373.65,0,0,0,59-55.09c0-1-.07-2-.1-3.06a85.68,85.68,0,0,1,1.64-20.08,49.19,49.19,0,0,0,1.47-7c-1.87,1.25-2.85,3.13-4.32,4.92-3.25,4.06-6.54,8.08-9.74,12.18-20,22.86-42.06,43.64-67.06,60.94a84.13,84.13,0,0,0-7.93,5.87C133.47,247,127.61,251.61,121,255c-7.7,4.49-15.69,8.41-23.7,12.32a18.34,18.34,0,0,0-3.66,2.37l-1.79-2c14.37-7.46,29.08-15.11,42.27-24.54,11-6.61,21.24-14.71,31.26-22.73a345,345,0,0,0,26.22-23.77,145.22,145.22,0,0,0,12.7-13.55c9.3-9.36,17.4-20,25.42-30.47A409.32,409.32,0,0,0,264,97.9a4.46,4.46,0,0,0,.53-2.37c1-.18,2-.35,3-.5-3.43,9.06-8.62,17.53-13.26,26-2.24,4.29-5.41,8.21-7.18,12.72,7.12-4.92,14.76-7.87,23.56-7.33,5.3-9.1,9.81-18.6,14.58-28,1,.66,2,1.34,2.9,2.06L285.46,103c1.91,3.8,4.44,7.24,6.44,11,1,1.64,3,4.6,5,4.78,9.22-7.6,18-16,26.91-24,2.2-1.88,4.25-4.38,6.85-5.65-7.91,8.31-16.28,16-24.43,24.09-2.52,2.56-5.48,4.8-7.65,7.66,4.55,4.33,8.89,8.86,13.45,13.16a32.63,32.63,0,0,0,3.78-3.26c7.62-7.76,15.44-15.2,22.72-23.29A5.13,5.13,0,0,1,341,106c-.36.62-.74,1.22-1.14,1.81-8.09,9.88-17.13,18.85-25.61,28.34,4.19,4.54,8.25,9.23,12.51,13.69,4.65-4.76,9.08-9.72,13.49-14.71,1.6-1.81,2.87-3.71,4.83-5.18-1.16,2.8-3.59,5.15-5.46,7.52-3.78,4.62-7.77,9.05-11.68,13.56,2.09,3.44,5.09,6.28,7.51,9.51,1.38,1.57,2.58,3.89,4.5,4.81,6.23-7.21,12.14-14.62,17.9-22.22-.75,2.67-2.44,4.49-4,6.75-4.11,5.88-8.49,11.56-13,17.16,2.76,4.52,6.3,8.62,9.39,12.93,5.45-5.83,10-12.8,14.34-19.47,2.46-3.47,2.26-7.59,1.37-11.56-.8-3.16-3.63-5.21-5.09-8,.14-4.72,1.26-9.4-1.08-13.85-1.17-2.38-3.32-3.44-5.36-5,1-5,1.72-9.56-1.75-13.8-1.39-2.33-3.55-2.15-5.49-3.42-.07-2.82.3-5.38-1-8-2-5.15-7.58-8.27-12.89-8.55.54-3.28,1.26-6.22,0-9.47A9.8,9.8,0,0,0,323,72.15c-3.72-.13-5.63,2.4-8.11,4.67-7.86,7.64-16.41,14.53-24.4,22a38.18,38.18,0,0,0-4.16-4.37c1.93-2.76,3-5.79,4.29-8.86C295,75,299.27,64.11,302.1,53a9,9,0,0,0-3.3-9.79c-3.56-2.8-8.51-2.09-11.76.86-2.32,10.53-6.41,20.76-10.3,30.81-1.88,4.27-3.28,9-5.93,12.88l-1.14-.15a22.59,22.59,0,0,1,1.56-4.52,325.85,325.85,0,0,0,14-34.15c.89-2.68,1.89-5.1,1.36-8a9.06,9.06,0,0,0-9.52-7.2c-2,.14-4,1.44-5.74,2.32-.41-3.63-1.31-6.74-4.63-8.72C262.77,24.78,256,26,255,31a384.43,384.43,0,0,1-89.23,136c-4.92,5-10.23,9.55-15.37,14.3a85.31,85.31,0,0,1-1.78,16.33c-.62,3.54-2.18,6.79-2.63,10.35,12.41-8.86,23.62-19.9,34.68-30.39,5.29-5.67,11-11.16,15.77-17.26,1.66-1.67,3.29-3.38,4.81-5.19a401,401,0,0,0,69.5-118c-.35,3.29-1.82,6.57-2.92,9.71a375.06,375.06,0,0,1-53.1,95.75C207.57,152,199.8,161,192,169.86a379,379,0,0,1-47.31,42.76c-3.21,2.08-4.37,6-7,9-3.24,4.46-7.39,7.85-11.77,11.12-3.89,1.93-7.59,3.74-11.92,4.46-3.73.74-7.06.07-10.4,2.31-8.11,5-17,8.54-25.17,13.31L77,251.32c5.69-2.66,11.15-5.81,16.75-8.66,2.75-1.57,6-3,8.22-5.24C94.69,236,88.88,232.5,83.09,228c-11.42,5.84-22.81,11.65-34.75,16.37-3.36,1.22-6.84,3.37-10.42,3.57,1.83-1.49,3.9-2.15,6-3.12,11.33-5,22.41-10.65,33.33-16.51A36.6,36.6,0,0,0,81,225.92c-4.09-5.29-8-10.47-10.46-16.77A15.24,15.24,0,0,0,66,211a306.91,306.91,0,0,1-28.21,13.7c-2.28,1-4.31,2.16-6.84,2.36,1.62-1.79,4.35-2.51,6.46-3.65,10.59-5.21,21.32-10.53,31.4-16.67.61-2.27-1.28-5.45-1.77-7.78-.89-3.59-.77-7.51-2-11a54.05,54.05,0,0,0-7.17,4.18,412.65,412.65,0,0,1-44.73,23.08c-4.22,1.72-7.13,6-5.85,10.6A9.21,9.21,0,0,0,16,232.76c2.72-.57,5.13-2.1,7.89-2.63-1.9,2.43-4.64,3.8-6.65,6.07a8.84,8.84,0,0,0,1.66,12.38h0l.26.19c3.72,2.8,7.45,1.27,11.53.5l1.3,1.17c-2.25,1-5.34,1.61-6.64,3.86-3.17,4.52-1.3,11.36,4,13.31,4.22,1.74,7.18-.74,11.49-.41-3.38,1.69-6.51,2.87-8,6.68-2.22,4.64.78,10.13,5.42,11.76,3.28,1.28,6.14-.73,9.83-.38-1.67,1.86-4.11,2.2-5.61,4.12A9.31,9.31,0,0,0,41,298a9.06,9.06,0,0,0,11.42,5.46,364.42,364.42,0,0,0,37.19-13.77c.76.69,1.53,1.35,2.28,2l-1.75.31c.91,3.11,2.69,5.65,4.46,8.32-.73.24-1.46.5-2.17.77l-.87-1.81c-2.77,1.74-4.87,3.14-8.33,2.29-3.38-.23-5.32-2.36-8.22-3.57-6,1.94-12,4.21-18.06,6.25,1.34,2.75,5.49,3,8.11,2.69,4.26-.32,7.08-3,11-4-1,1.49-2.13,2.91-3.28,4.3A38.9,38.9,0,0,0,63.84,309c-3.86,0-6.84-.66-9.3-3.79-2.63.35-4.86,1.14-7.53.47A10.86,10.86,0,0,1,38.48,295c-.08-2.22,1-4.34,1.41-6.57-4.37-1.16-8-3.39-9.3-8a41.56,41.56,0,0,0-3.31-9.57C26.09,267.33,22.66,266,22,262c-.29-3.58-.16-6.77-2-10-2.42-1.79-4.7-3.1-5.78-6.12-1.7-3.82-.71-7.24.88-10.85-4.33-1-8-3.09-9.47-7.53-1.81-5.22.3-10.24,4.64-13.39A178.52,178.52,0,0,1,7.76,187c-.93-16.28,1.68-32.34,6.7-47.81-1.63-1.45-3-2.93-3.36-5.18-.86-4.66,2.81-9.14,6.17-11.92-.94-2.67-1.65-5.26-1-8.11.85-3.43,2.9-6.09,5.17-8.7-.87-6.44,3-10.74,7.74-14.37-.11-7.2,4.69-10.82,9.35-15.35.88-3.38,1.6-6.43,4-9.13,4.33-6.2,12.26-8.06,18.91-11.08,2.9-8,10.17-12.51,18.35-13.65,4.67-6.64,10.11-12.72,19-12,1.81-2.61,3.36-5.1,5.94-7,3.65-2.71,8.2-4.15,12.72-3.07a19.76,19.76,0,0,1,6.81-5.36c4.83-2.87,10.9-2.46,16-.57A20.28,20.28,0,0,1,151.2,5.3Z" transform="translate(-4.98 -5)"/><path id="p2-2" class="cls-2" d="M162.86,15c1.26,25.18,5,49.82,8.9,74.68-5.92,7.32-11.95,14.6-18.49,21.32-6-30.35-8.56-61-10.75-91.76-.65,5,.09,9.74,0,14.73A570.47,570.47,0,0,0,150,113c.48,1.58-1.19,2.82-2.1,3.9-5.74,5.77-11.32,12.51-17.93,17.28a254.46,254.46,0,0,1-4.82-27.12l1-.41.83.08a30.58,30.58,0,0,0-4-12.65c-.22-4.88-.87-9.71-1.34-14.57a511.21,511.21,0,0,1-2-55.21h-1.06c-.79,15.22-1.16,30.42-.51,45.65.09,6.87,1.33,13.77,1,20.62-4.49-2.89-9.76-3.69-15-3.25a17.08,17.08,0,0,1-4.79-.14c-.66-16.13-1.18-32.14.38-48.24.41-3.36-.84-6.16,1.44-9,3.35-5.68,10.3-10.87,17.06-7.82,1.86-2.27,3.65-4.41,6.34-5.75a15.33,15.33,0,0,1,16.39.18c2.52-4,5.37-7.28,9.88-9C155.59,5.58,163.27,9.13,162.86,15Z" transform="translate(-4.98 -5)"/><path id="p3-2" class="cls-2" d="M206.16,10.6c5.38-2.4,11.57-2.93,15.51,2.25-3.29,6.21-6.27,12.73-10.16,18.58a361.34,361.34,0,0,0-19.88,31.13c-3.38,6-7.86,11.47-12,17-2,2.55-3.71,5.36-6.21,7.32-.9-5.3-1.67-10.63-2.55-15.93-.22-2.09-.88-3.85.43-5.74a352.59,352.59,0,0,1,30-43.9c1.61-2.12,3.65-4,4.71-6.43-1.82.94-2.86,2.46-4.19,4a333.31,333.31,0,0,0-26,34c-2,2.91-3.74,6-5.93,8.74-1-2.67-1.07-5.79-1.5-8.63-.43-4.31-1.31-8.66-1.35-13,2.73-4.61,6.79-8.62,10.14-12.84,2.11-2.79,5.24-5,6.82-8.14-3.91,2.94-7,7-10.39,10.52-2.19,2.21-4,5.29-6.68,6.84-1.41-4.51-1.12-9.69-1.69-14.4-.94-3.42,3.78-5.27,5.5-7.85-2.07.89-3.68,2.67-5.57,4-.34-2.62-.61-5.25-.86-7.88,4.15-.62,7.58,2.21,11.25.3,5.05-1.9,10-3.47,14.8,0,4.8-2.35,12-5.41,15.8.06Z" transform="translate(-4.98 -5)"/><path id="p4-2" class="cls-2" d="M228.07,11.07a9.11,9.11,0,0,1,11.38,10.49c1.92-1.79,3.79-3.19,6.58-3.12,5-.36,10,4.43,9,9.47a417.35,417.35,0,0,1-63.58,105.52c-5.3,6.31-10.61,12.69-16.46,18.5-9.14,4.34-16.83,9.75-26.94,12.31-.87-3.08-2.05-6.07-3-9.13,10.68-10.37,21.22-20.84,30.84-32.23a409.69,409.69,0,0,0,59.59-92.4A46.37,46.37,0,0,0,238.82,23a20,20,0,0,0-2.57,4.09c-23.52,46.44-54.13,88.78-92.35,124.23-2-1.7-3-4.46-4.61-6.58-2-3.29-4.88-5.78-7.35-8.71,34.82-33.37,64.93-71.86,87.64-114.49,2.4-4.21,3.27-8.92,8.49-10.46Z" transform="translate(-4.98 -5)"/><path id="p5-2" class="cls-1" d="M118.53,24.31h1.06a511.21,511.21,0,0,0,2,55.21c.47,4.86,1.12,9.69,1.34,14.57-1.26-1.2-2.56-2.37-3.88-3.5.29-6.85-1-13.75-1-20.62C117.37,54.73,117.74,39.53,118.53,24.31Z" transform="translate(-4.98 -5)"/><path id="p6-2" class="cls-2" d="M266.65,27.34c3.32,2,4.22,5.09,4.63,8.72,1.77-.88,3.75-2.18,5.74-2.32a9.06,9.06,0,0,1,9.52,7.2c.53,2.89-.47,5.31-1.36,8a327.69,327.69,0,0,1-14,34.13,22.59,22.59,0,0,0-1.56,4.52c-6.73-.74-13.71-.66-19.28,3.71-4.89,4-6.49,9.62-7,15.66,1.88-.63,3-2,4.59-3.12a50.58,50.58,0,0,1,16.52-8.3,4.46,4.46,0,0,1-.53,2.37,409.65,409.65,0,0,1-34.25,54.72c-8,10.46-16.12,21.11-25.42,30.47-4.15.28-7.54,2.62-11.31,1.09a5,5,0,0,1-3.65-6.06h0V178c.66-2.76,1.84-5.41,2.64-8.14,7.76-8.94,15.53-17.83,22.69-27.26a375.06,375.06,0,0,0,53.1-95.75c1.1-3.14,2.57-6.42,2.92-9.71a401.24,401.24,0,0,1-69.52,117.94c-1.52,1.81-3.15,3.52-4.81,5.19C187.4,163.68,180,169,170,170.6c-1.39.27-2.34-.46-3.55-1l-.69-2.68A384.51,384.51,0,0,0,255,31C256,26,262.77,24.78,266.65,27.34Z" transform="translate(-4.98 -5)"/><path id="p7-2" class="cls-3" d="M99.24,31.9C99.87,37.42,98.12,42.41,98,48a301.14,301.14,0,0,0-.7,40.3A29.5,29.5,0,0,0,78,101a21.74,21.74,0,0,0-1.51,4.23A297.11,297.11,0,0,0,79.36,138c.71,2.68-1.15,3.89-2.47,5.89-5,6.68-7.93,14.94-10.38,22.85-.47-2.24-.93-4.49-1.38-6.73A262.41,262.41,0,0,1,59.3,88a207.21,207.21,0,0,1,3.91-31c.92-4.73,4.46-8,8.31-10.57,2.74-1.85,6-1.94,9.11-3,1.6-1.32,2.67-3.33,4.06-4.88C88.54,34.26,93,30.7,99.24,31.9Z" transform="translate(-4.98 -5)"/><path id="p8-2" class="cls-4" d="M260.1,39.91c.58,2.33-.7,4.58-1.44,6.75-6.81,17.39-15.24,34.56-26.24,49.7-1.83,2.1-3.43,5.44-6.08,6.48,11.93-18.51,20.6-38.17,30.58-57.94.91-1.66,1.58-3.91,3.18-5Z" transform="translate(-4.98 -5)"/><path id="p9-2" class="cls-4" d="M91.93,42a14.88,14.88,0,0,1-.09,4c-2,12.76-2.14,25.34-3,38.09l-.59-.47A52.8,52.8,0,0,1,87,74c-.4-9.53-.42-18.64,2.39-27.85C90,44.44,90.16,42.81,91.93,42Z" transform="translate(-4.98 -5)"/><path id="p10-2" class="cls-2" d="M298.8,43.18A9,9,0,0,1,302.1,53c-2.83,11.14-7.1,22-11.46,32.63-1.33,3.07-2.36,6.1-4.29,8.86-4.49-3.89-9.84-5.5-15.54-6.73,2.65-3.87,4-8.61,5.93-12.88,3.89-10,8-20.28,10.3-30.81,3.25-3,8.2-3.66,11.76-.86Z" transform="translate(-4.98 -5)"/><path id="p11-2" class="cls-4" d="M72.76,52.09A6.38,6.38,0,0,1,73,56c-2.2,11.78-2,23.09-1.82,35,.25,11,1.8,21.91,2.48,32.85-1.47-2-1.49-4.15-2-6.51A183.5,183.5,0,0,1,68,92c-.4-11.28-.62-22,2-33C70.61,56.45,71,54.1,72.76,52.09Z" transform="translate(-4.98 -5)"/><path id="p12-2" class="cls-5" d="M305,54.09a17,17,0,0,1,13,16.83c-8.1,8-17.09,15.81-25.68,23.34-1.1.89-2,1.88-3.48,1.91.36-2.53,1.53-4.66,2.52-7A293.17,293.17,0,0,0,303.6,55.53c.22-1.17.69-1.65,1.4-1.44Z" transform="translate(-4.98 -5)"/><path id="p13-2" class="cls-2" d="M60.89,58c-.68,4-1.41,7.93-2,11.91-3.44,1.3-7,2.41-10.37,3.77-2.58,1-4.87,2.32-7.67,2.6A12.87,12.87,0,0,1,43.92,68C47.55,62.61,55,60,60.89,58Z" transform="translate(-4.98 -5)"/><path id="p14-2" class="cls-2" d="M58.38,71.62a89.79,89.79,0,0,1-1.07,13.5c-5.51,2.1-12.39,3.32-18.13,5.55,6.06-.5,11.82-3.31,17.93-3.79C57.29,91.56,57,96.27,57,101c-8.52,1.76-17.08,3.28-25.51,5.47-1.11.36-2.81.44-3.48,1.49,9.59-1.48,19.13-3.83,28.81-4.79.31,5,.38,10,.36,15-4,.83-8.18.88-12.24,1.52-7.55.84-15,2.33-22.59,2.92,5.84.65,12-.79,17.9-1.19s11.57-1.23,17.35-1.15c.14,5.2.88,10.32,1.25,15.49A360.92,360.92,0,0,0,19,137.89c-3.82.68-6.81-3.34-5.82-6.88,1.2-3.73,3.85-6,6.87-8.31-1.1-2.64-2.48-4.74-2-7.75a16.58,16.58,0,0,1,6.38-9.29c-.68-1.21-1.56-2.1-1.13-3.61,1-5,4.52-7.42,8.22-10.4-.27-2.31-.51-4.24.88-6.27,2.11-3.28,5.06-6.74,8.51-8.62C47,75.65,52.18,72.51,58.38,71.62Z" transform="translate(-4.98 -5)"/><path id="p15-2" class="cls-2" d="M323,72.15a9.8,9.8,0,0,1,10.21,6.74c1.3,3.25.58,6.19,0,9.47,5.31.28,10.94,3.4,12.89,8.55,1.34,2.62,1,5.18,1,8,1.94,1.27,4.1,1.09,5.49,3.42,3.47,4.24,2.78,8.8,1.75,13.8,2,1.56,4.19,2.62,5.36,5,2.34,4.45,1.22,9.13,1.08,13.85,1.46,2.77,4.29,4.82,5.09,8,.89,4,1.09,8.09-1.37,11.56-4.38,6.67-8.89,13.64-14.34,19.47-3.09-4.31-6.63-8.41-9.39-12.93,4.48-5.6,8.86-11.28,13-17.16,1.53-2.26,3.22-4.08,4-6.75-5.76,7.6-11.67,15-17.9,22.22-1.92-.92-3.12-3.24-4.5-4.81-2.42-3.23-5.42-6.07-7.51-9.51,3.91-4.51,7.9-8.94,11.68-13.56,1.87-2.37,4.3-4.72,5.46-7.52-2,1.47-3.23,3.37-4.83,5.18-4.41,5-8.84,10-13.49,14.71-4.26-4.46-8.32-9.15-12.51-13.69,8.48-9.49,17.52-18.46,25.61-28.34.4-.59.78-1.19,1.14-1.81a5.13,5.13,0,0,0-2.39,1.47c-7.28,8.09-15.1,15.53-22.72,23.29a32.63,32.63,0,0,1-3.78,3.26c-4.56-4.3-8.9-8.83-13.45-13.16,2.17-2.86,5.13-5.1,7.65-7.66,8.15-8.07,16.52-15.78,24.43-24.09-2.6,1.27-4.65,3.77-6.85,5.65-8.9,8-17.69,16.41-26.91,24-2-.18-4-3.14-5-4.78-2-3.76-4.53-7.2-6.44-11l2.59-2.47c2.1,1.71,3.73,3.85,5.89,5.49a26.05,26.05,0,0,0-3.43-7.2c8-7.48,16.54-14.37,24.4-22,2.5-2.29,4.41-4.85,8.09-4.69Z" transform="translate(-4.98 -5)"/><path id="p16-2" class="cls-6" d="M104,87.33c5.25-.44,10.52.36,15,3.25,1.32,1.13,2.62,2.3,3.88,3.5A30.61,30.61,0,0,1,127,106.71l-.83-.08c-1.76-1.15-3.43-2.48-5.14-3.7C115,98.6,107.42,95.05,99.88,94.7h-2.1c-7,0-13.38,3.36-18.19,8.31a10.43,10.43,0,0,1-3.08,2.27A22.38,22.38,0,0,1,78,101,29.48,29.48,0,0,1,97.35,88.26C99.57,87.91,101.81,87.59,104,87.33Z" transform="translate(-4.98 -5)"/><path id="p17-2" class="cls-6" d="M269.67,87.58l1.14.15c5.7,1.23,11,2.84,15.54,6.73a38.18,38.18,0,0,1,4.16,4.37A25.91,25.91,0,0,1,294,106c-2.16-1.64-3.79-3.78-5.89-5.49-.94-.72-1.91-1.4-2.9-2.06A24.66,24.66,0,0,0,267.45,95c-1,.15-2,.32-3,.5a50.58,50.58,0,0,0-16.52,8.3c-1.57,1.16-2.71,2.49-4.59,3.12.53-6,2.13-11.69,7-15.66,5.64-4.33,12.64-4.41,19.33-3.67Z" transform="translate(-4.98 -5)"/><path id="p18-2" class="cls-2" d="M97.78,94.69c.25,10.76,1.73,21.56,3.18,32.21a50,50,0,0,0-10,4c-2.85,1.5-5.13,3.76-8,5.28-1.35-5.75-1.71-11.78-2.43-17.64a134.16,134.16,0,0,1-1-15.51c4.87-5,11.24-8.35,18.25-8.34Z" transform="translate(-4.98 -5)"/><path id="p19-2" class="cls-2" d="M99.9,94.7c7.54.35,15.07,3.9,21.15,8.23.55,9.39,2.74,18.74,4,28-6.89-3.49-12.94-5-20.74-4.41a19.32,19.32,0,0,1-1-3.57C102,113.56,100.71,104.16,99.9,94.7Z" transform="translate(-4.98 -5)"/><path id="p20-2" class="cls-2" d="M267.45,95a24.71,24.71,0,0,1,17.7,3.45c-4.77,9.37-9.28,18.87-14.58,28-8.8-.54-16.44,2.41-23.56,7.33,1.77-4.51,4.94-8.43,7.18-12.72,4.64-8.49,9.79-17,13.26-26.06Z" transform="translate(-4.98 -5)"/><path id="p21-2" class="cls-2" d="M284,105.71a11.13,11.13,0,0,1,1.92,2.3,215.72,215.72,0,0,1,12.34,22.84,156.36,156.36,0,0,1,7.08,16.07,12.48,12.48,0,0,1-.9,5.3,51.18,51.18,0,0,0-13.87-17.82c-2.2-1.8-4.61-2.56-5.75-5.33-1.94-4.24-4.39-8.21-6.4-12.39,1.58-3.68,3.66-7.39,5.58-11Z" transform="translate(-4.98 -5)"/><path id="p22-2" class="cls-2" d="M277.07,119.43c2.24,2.73,3.46,6.33,4.94,9.51-3-.81-5.88-1.68-8.86-2.35a36.07,36.07,0,0,1,3.92-7.16Z" transform="translate(-4.98 -5)"/><path id="p23-2" class="cls-7" d="M297,122.85c3.12,1.62,5.25,4.93,8,7.1,19.2,18.94,35.76,39.79,51,62a19.79,19.79,0,0,1,2.9,14c-.31,1.37-1.31,3.6-2.92,3.68-2.75-.12-4-3.93-6.71-4.56,1.55,3.81,4.26,6.48,5.18,10.57.79,3.19,1.23,7.33-.4,10.32a2.93,2.93,0,0,1-3.9,1.4h0l-.29-.16c-2.11-1.35-3.79-3.45-5.64-5.13,1.31,4.61,5.25,7.72,5.75,12.88.38,3.39,1,9.41-3.24,10.63-2.42-.14-4.49-2.81-6.77-3.73,1,3.26,3.35,5.7,4.12,9.1,1,3.73,1.4,8.53-1.5,11.55-1.86,1.14-3.68.36-5.22-.87a51.47,51.47,0,0,1-9.8-10.25c-1.35-2.06-3.71-3.72-3.38-6.41.16-7.36-.72-14.81-.29-22.14,4,2.89,6.1,8.09,10.06,11.1-2.5-5.52-7.64-9.82-10.67-15.1-.79-4.81-1-9.72-1.75-14.55-.41-4.09-1.58-8.21-1.48-12.31,3.75,3.23,6.08,8.12,10,11-2.44-5.57-7.87-9.89-11-15.11-1.27-3.92-1.56-8.14-2.62-12.13-1.13-5.73-3.13-11.23-4.29-16.93a23,23,0,0,1,4.1,3.91C323.69,171.31,331.11,180,338,189a11.68,11.68,0,0,0,3.07,3c-.7-2.22-2.17-3.73-3.52-5.56-8.21-11-16.87-21.71-26-32-2.79-3-3.67-7.83-5.41-11.58-2.61-6.75-7-13.08-9.14-20Z" transform="translate(-4.98 -5)"/><path id="p24-2" class="cls-8" d="M99.53,130.56a31,31,0,0,1,27.39,5.54c9.64,7.08,15.85,18.87,18.52,30.34a67.78,67.78,0,0,1-4.23,43.62c-4.37,9.08-11,17.3-20.28,21.71a30,30,0,0,1-25.15.53c-6.77-2.85-12.12-7.83-16.44-13.67C71,206.93,67.56,192.2,68.38,178c.72-11.65,4.42-23.7,11.5-33.09C84.81,138.32,91.53,132.81,99.53,130.56Z" transform="translate(-4.98 -5)"/><path id="p25-2" class="cls-8" d="M260.52,130.53A30.63,30.63,0,0,1,286,134.91c9.88,6.56,16.5,17.87,19.55,29.15a67.88,67.88,0,0,1-3.18,45c-4,8.9-10.62,17.36-19.33,22a30.28,30.28,0,0,1-23,2.52c-8.42-2.44-15.33-8.36-20.33-15.42C232.44,207.75,229.07,194.62,229,182c.13-13.15,3.77-26.65,11.77-37.24,4.9-6.61,11.76-12.06,19.75-14.23Z" transform="translate(-4.98 -5)"/><path id="p26-2" class="cls-2" d="M49.82,138c-2.11,8.92-3.35,17.9-4.71,27-2.4,1.6-3.89,3.61-7.09,3.19-4.28-.14-6.62-4.35-9.07-7.26a106,106,0,0,1,2.64-15.2,31,31,0,0,1,2.16-7.1A154,154,0,0,1,49.82,138Z" transform="translate(-4.98 -5)"/><path id="p27-2" class="cls-2" d="M52.26,138.07c2.09-.68,4.66-.3,6.83-.16,1.47,9.4,2.94,18.78,5.13,28.05a25,25,0,0,1,.81,7.15c-1.43.69-2.6,2.29-4.2,1.12-5.61-3.33-8.23-11.84-11.92-16.58a111,111,0,0,1,3.35-19.58Z" transform="translate(-4.98 -5)"/><path id="p28-2" class="cls-2" d="M30.1,139c-1.34,6.33-3.1,12.55-4.22,18.94-2,1.45-4.94,4.58-7.61,3.74-3-1.53-3.85-6.11-5.22-9,.56-4.39,2-8.3,3.31-12.5,4.57-.46,9.15-1.09,13.74-1.23Z" transform="translate(-4.98 -5)"/><path id="p29-2" class="cls-9" d="M305.35,146.92c7.52,18.06,11.23,37.63,14.08,56.91.25,5.29-1.07,11.79-4.7,15.82-2.08,1.54-4.18-1.65-5.71-2.76-.71-4.19-1.75-8.83-1.29-13.06a71.54,71.54,0,0,0-3.28-51.61,12.48,12.48,0,0,0,.9-5.3Z" transform="translate(-4.98 -5)"/><path id="p30-2" class="cls-9" d="M175,151.93c-3.05,3.6-6.43,6.92-9.72,10.3-4.95,4.61-9.63,9.81-15.09,13.82-.69-3.91-1.18-8-2.13-11.81C158.2,161.68,165.89,156.27,175,151.93Z" transform="translate(-4.98 -5)"/><path id="p31-2" class="cls-9" d="M13,152.7c1.37,2.84,2.25,7.42,5.22,9,2.67.84,5.61-2.29,7.61-3.74a160.61,160.61,0,0,0,0,48.94,65.45,65.45,0,0,1-13.38,5.9C10.08,201.92,9.82,191,9.59,180c.28-9.09.87-18.56,3.46-27.29Z" transform="translate(-4.98 -5)"/><path id="p32-2" class="cls-9" d="M48.91,157.65c3.69,4.74,6.31,13.25,11.92,16.58,1.6,1.17,2.77-.43,4.2-1.12-.31,3.84.63,8.8-.49,12.35C61,188,57.07,190,53.4,192.32c-1.91,1-3.65,2.58-5.9,2.5-.5-12.3-.72-25,1.41-37.17Z" transform="translate(-4.98 -5)"/><path id="p33-2" class="cls-9" d="M196.4,160.3c-4.78,6.1-10.48,11.59-15.77,17.26C169.57,188.05,158.36,199.09,146,208c.45-3.56,2-6.81,2.63-10.35a85.31,85.31,0,0,0,1.78-16.33c5.14-4.75,10.45-9.3,15.37-14.3l.69,2.68c1.21.53,2.16,1.26,3.55,1,10-1.64,17.41-7,26.4-10.39Z" transform="translate(-4.98 -5)"/><path id="p34-2" class="cls-2" d="M229.13,159.84a49.19,49.19,0,0,1-1.47,7,85.53,85.53,0,0,0-1.68,20c-3.24,1.68-6.43,4.21-10,5.1-1.88.36-3.56.09-3.94-2-.19-4.34,2.29-8.68,3-13,3.2-4.1,6.49-8.12,9.74-12.18,1.5-1.81,2.48-3.71,4.35-5Z" transform="translate(-4.98 -5)"/><path id="p35-2" class="cls-9" d="M29,160.85c2.45,2.91,4.79,7.12,9.07,7.26,3.2.42,4.69-1.59,7.09-3.19-.16,4.35-.23,8.69-.47,13-.29,6.25.67,12.72.3,18.9a45.7,45.7,0,0,1-7,4c-3.12,1.57-5.8,3.37-9.06,4.23a16.33,16.33,0,0,1-.82-4.15c-1.22-13.17-1.46-26.91.89-40.05Z" transform="translate(-4.98 -5)"/><path id="p36-2" class="cls-10" d="M102.56,162.68a23.56,23.56,0,0,1,13.57,1c8,3.19,13.81,10.63,16.44,18.67,3.87,11.7,2.17,25.78-5.61,35.55-4.84,6.1-12,10.16-19.93,9.8-8.11-.12-14.93-4.83-19.55-11.23-7.38-10.37-8.41-25-3.61-36.63C87.39,171.68,93.69,164.88,102.56,162.68Z" transform="translate(-4.98 -5)"/><path id="p37-2" class="cls-10" d="M263.54,162.64a23.85,23.85,0,0,1,12.37.7c7.71,2.64,13.75,9.57,16.69,17,4.51,11.38,3.51,25.45-3.43,35.66-4.67,6.75-11.7,11.66-20.14,11.73-8.8.3-16.29-4.68-21.14-11.73-7.06-10.44-8-24.76-3.17-36.29,3.4-8,10.1-15.05,18.82-17.07Z" transform="translate(-4.98 -5)"/><path id="p38-2" class="cls-5" d="M364.86,164.77c1.6,7.18,1,14.4-.37,21.56-.9,3.7-1.82,7.21-3.92,10.43-1.79-5.74-5.81-9.69-8.7-14.77,2.43-3.6,5.33-6.85,7.8-10.42,1.8-2.42,3-4.81,5.19-6.8Z" transform="translate(-4.98 -5)"/><path id="p39-2" class="cls-8" d="M110.41,167.36c4.66-2,9,.68,12,4.17,3.55,4,5.16,11.69.66,15.63a8.73,8.73,0,0,1-8.3.09,15,15,0,0,1-8-11.31C106.57,172.45,107.06,169.15,110.41,167.36Z" transform="translate(-4.98 -5)"/><path id="p40-2" class="cls-8" d="M272.06,167c5.58-1.61,11,2.94,13.24,7.77,1.92,4.15,2.2,10.16-2.23,12.86-8,3-15.44-5.72-15.63-13.13.11-3.26,1.27-6.35,4.62-7.5Z" transform="translate(-4.98 -5)"/><path id="p41-2" class="cls-9" d="M192,169.89c-.8,2.73-2,5.38-2.64,8.14a5,5,0,0,0,3.52,6.13H193c3.77,1.53,7.16-.81,11.31-1.09a145.1,145.1,0,0,1-12.66,13.46,345,345,0,0,1-26.22,23.77c-10,8-20.23,16.12-31.26,22.73-2.82.16-6,1.17-8.52-.68-2.37-2.65.09-6.4.35-9.58,4.38-3.27,8.53-6.66,11.77-11.12,2.6-3,3.76-6.94,7-9A378.77,378.77,0,0,0,192,169.89Z" transform="translate(-4.98 -5)"/><path id="p42-2" class="cls-6" d="M105.11,174.45c.58.48,1.15,1,1.71,1.49a15,15,0,0,0,8,11.31,8.73,8.73,0,0,0,8.3-.09c1.88,3.81,1.58,8.72,1,12.81-1.54,7.92-7.42,15.5-16.09,15.55-9.49.42-16.16-8.9-17-17.55C89.84,188.07,94.65,176.85,105.11,174.45Z" transform="translate(-4.98 -5)"/><path id="p43-2" class="cls-6" d="M267.44,174.51c.19,7.41,7.66,16.13,15.63,13.13l1.51.51a29.81,29.81,0,0,1,0,13.42c-1.69,6-6.15,12.13-12.54,13.57a14.5,14.5,0,0,1-13.58-3.6c-6.72-6-8.12-16.33-5.53-24.6,2.21-6.37,7.32-12.26,14.51-12.43Z" transform="translate(-4.98 -5)"/><path id="p44-2" class="cls-9" d="M215.07,177c-.67,4.33-3.15,8.67-3,13,.38,2.12,2.06,2.39,3.94,2,3.54-.89,6.73-3.42,10-5.1,0,1,.06,2,.1,3.06a373.5,373.5,0,0,1-58.94,55.2c-2.44,1.66-3.81,3.81-7.13,3.05-4-1.08-8-2.12-11.93-3.5a11.44,11.44,0,0,0-4.05-.71c-1.16,3.34.13,7.49.4,11-.15.93-.3,1.85-.46,2.78-2.51.11-5.71.75-7.84-.92-1.31-.88-1.41-2.36-1-3.78,1-3.57,3.8-5.77,4.91-9.26A84.13,84.13,0,0,1,148,238C173,220.58,195.09,199.8,215.07,177Z" transform="translate(-4.98 -5)"/><path id="p45-2" class="cls-9" d="M65.09,188c1.22,3.48,1.1,7.4,2,11-2.2-.15-5.27.43-7.21-.74-2.2-1.52-1.61-3.73-2-6.07A53.93,53.93,0,0,1,65.09,188Z" transform="translate(-4.98 -5)"/><path id="p46-2" class="cls-5" d="M57.92,192.14c.34,2.34-.25,4.55,2,6.07,1.94,1.17,5,.59,7.21.74.49,2.33,2.38,5.51,1.77,7.78C58.77,212.87,48,218.19,37.45,223.4c-2.11,1.14-4.84,1.86-6.46,3.65,2.53-.2,4.56-1.37,6.84-2.36A306.12,306.12,0,0,0,66,211a15.12,15.12,0,0,1,4.52-1.85c2.46,6.3,6.37,11.48,10.46,16.77a37.5,37.5,0,0,1-3.76,2.35c-10.92,5.86-22,11.49-33.33,16.51-2.11,1-4.18,1.63-6,3.12,3.58-.2,7.06-2.35,10.42-3.57,12-4.72,23.36-10.53,34.78-16.33,5.79,4.54,11.6,8.07,19,9.48-2.23,2.25-5.47,3.67-8.22,5.24-5.6,2.85-11.06,6-16.75,8.66-3.29-3.52-6.39-7.22-9.75-10.67-1.14-1.41-3-.15-4.22.39A26.11,26.11,0,0,0,52,253c1.14,2.82,4.92,4.38,6,7.31a87.2,87.2,0,0,1-10.69,4.38c4.27-.77,7.64-2.82,11.64-4.35,5,5.06,10.5,9.7,15.35,14.87l.31,1c-5.75,1.92-11.26,4.46-17,6.4,6-1.44,11.78-4.17,17.55-6.39,5.17,4,9.67,9,14.49,13.48a364.42,364.42,0,0,1-37.19,13.77A9.06,9.06,0,0,1,41,298a9.31,9.31,0,0,1,1.45-8.57c1.5-1.92,3.94-2.26,5.61-4.12-3.69-.35-6.55,1.66-9.83.38-4.64-1.63-7.64-7.12-5.42-11.76,1.48-3.81,4.61-5,8-6.68-4.31-.33-7.27,2.15-11.49.41a9,9,0,0,1-4-13.31c1.3-2.25,4.39-2.82,6.64-3.86l-1.27-1.17c-4.08.77-7.81,2.3-11.53-.5A8.83,8.83,0,0,1,17,236.52h0l.19-.26c2-2.27,4.75-3.64,6.65-6.07-2.76.53-5.17,2.06-7.89,2.63a9.21,9.21,0,0,1-8.69-6.95C6,221.23,8.91,217,13.13,215.25A412,412,0,0,0,57.92,192.14Z" transform="translate(-4.98 -5)"/><path id="p47-2" class="cls-2" d="M226.73,192.9c.23,1,.46,2,.68,3.08.36,3.43-4.38,4-6.79,3.33A56.07,56.07,0,0,1,226.73,192.9Z" transform="translate(-4.98 -5)"/><path id="p48-2" class="cls-9" d="M227.41,196c.48,2.18,1,4.36,1.31,6.56q-10.53,7.55-21.24,14.87c-1.06.66-2.18,1.68-3.44,1.8a2,2,0,0,1-.74-2c5.85-5.87,11.8-11.76,17.32-17.94,2.36.71,7.15.13,6.79-3.29Z" transform="translate(-4.98 -5)"/><path id="p49-2" class="cls-5" d="M319.43,203.83A320.31,320.31,0,0,1,322.21,249a13.47,13.47,0,0,1-.75,3.37A27.41,27.41,0,0,0,310,240.72c0-8-.9-15.88-.93-23.83,1.53,1.11,3.63,4.3,5.71,2.76,3.58-4,4.9-10.53,4.65-15.82Z" transform="translate(-4.98 -5)"/><path id="p50-2" class="cls-9" d="M230,206.58c1.85,3.37,3.2,7,5.21,10.24a14.24,14.24,0,0,1,2,7.17c-.19,1.21-1.68,1.91-2.55,2.66-7.83,5.41-15.73,10.7-23.76,15.8-1.46-1.79-1.83-4.52-2.53-6.69-1-3.93-2.47-7.78-3.28-11.76.85-1.72,3.42-2.77,4.93-4,6.83-4.24,13.17-9.3,20-13.42Z" transform="translate(-4.98 -5)"/><path id="p51-2" class="cls-9" d="M305,211.3c1.59,2.08.86,5.86,1,8.36-.94,2.54-1.61,5.76-3.41,7.83-3,1.73-4.88-.58-6.88-2.43,3.87-4.07,6.39-9,9.29-13.76Z" transform="translate(-4.98 -5)"/><path id="p52-2" class="cls-9" d="M201.15,219.41a14.22,14.22,0,0,1,1.53,3.8c2.37,8.82,5.16,17.52,7.56,26.33a96.74,96.74,0,0,1-10.15,1.68c-2.8-.06-6.18.49-8.83-.41-1.76-3.14-2.3-7.05-3.75-10.39-.63-2.17-2.34-4.84-2.12-7.08C190.74,228.8,195.85,224,201.15,219.41Z" transform="translate(-4.98 -5)"/><path id="p53-2" class="cls-5" d="M306,219.66c1.4,3.89,1,8.08,1.47,12.32.1,2.51.76,5.31.09,7.74-4.68,4.08-8.56,9.21-12.84,13.73-1.28-2.22-.9-5-1-7.49,0-6-1-11.94-.77-18,1-1,1.9-1.92,2.81-2.92,2,1.85,3.91,4.16,6.88,2.43C304.41,225.42,305.08,222.2,306,219.66Z" transform="translate(-4.98 -5)"/><path id="p54-2" class="cls-9" d="M239.35,223.11c4.92,5.19,9.75,9.25,16.24,12.38a116.42,116.42,0,0,1,1.12,14.33c-.61,5.77-1.81,11.41-2.68,17.14-1,5.21-1.84,11-4.3,15.71-1.09,1.84-2.76,1.9-4.61,2.47a574.88,574.88,0,0,0-5.77-62Z" transform="translate(-4.98 -5)"/><path id="p55-2" class="cls-9" d="M237.81,228.09c1.17,6.56,2,13.29,2.58,19.93l-.29.88a107.21,107.21,0,0,1-10.25,6.75l-1.23-.39c.74-3.75,1.72-7.26,1.23-11.13-2.62-.4-4.49.92-6.86,1.77a57.82,57.82,0,0,1-10.93,3.21c-.17-1.1-.36-2.2-.54-3.3A18.09,18.09,0,0,1,215,243C222.74,238.21,230.19,233.05,237.81,228.09Z" transform="translate(-4.98 -5)"/><path id="p56-2" class="cls-5" d="M290.63,230.3c1,8.6,1.51,17.06,1.72,25.71-5,5.39-9.73,11.12-15,16.26.35-8.78-.29-17.54-.22-26.33.86,1.76,2,4.27,4,5,3,.48,4.47-2,5.53-4.36a53,53,0,0,0,3.44-15.92Z" transform="translate(-4.98 -5)"/><path id="p57-2" class="cls-9" d="M290,230.64a53,53,0,0,1-3.44,15.92c-1.06,2.34-2.53,4.84-5.53,4.36-2-.71-3.09-3.22-4-5-.36-3-.9-5.92-.36-9A57,57,0,0,0,290,230.64Z" transform="translate(-4.98 -5)"/><path id="p58-2" class="cls-5" d="M126,232.79c-.26,3.18-2.72,6.93-.35,9.58,2.48,1.85,5.7.84,8.52.68-13.19,9.43-27.9,17.08-42.27,24.54-4.54-4.83-8.92-9.81-13.39-14.72,8.21-4.77,17.06-8.33,25.17-13.31,3.34-2.24,6.67-1.57,10.4-2.31C118.38,236.53,122.08,234.72,126,232.79Z" transform="translate(-4.98 -5)"/><path id="p59-2" class="cls-9" d="M182.53,236.18c1.53,4.85,3.32,9.69,4.38,14.67-2.67.67-5.23.44-8,.37-3.31-.41-6.61-.83-9.9-1.36-.67-.36-1.33-.73-2-1.11,1.56-2.49,4.49-4.16,6.77-6,3-2.17,5.56-4.9,8.75-6.57Z" transform="translate(-4.98 -5)"/><path id="p60-2" class="cls-9" d="M258.35,236.82c5.06.54,9.82,1.24,15,1.06-.07,4.31-1.77,8.47-2.72,12.78-1.16,3.74-2,8.38-4.83,11.24-3-1.31-4-5.39-5.64-8-1.33-5.58-1.16-11.42-1.81-17.08Z" transform="translate(-4.98 -5)"/><path id="p61-2" class="cls-5" d="M273.32,237.88l.36.24c.45,6,1.36,11.85,1.46,17.84.29,5.76.24,11.71,1.31,17.38-5,5.88-10.29,11.62-15.57,17.23-.67-3.22-.41-6.35-.41-9.61.09-9-.79-18.12-.34-27.11,1.61,2.66,2.67,6.74,5.64,8,2.78-2.86,3.67-7.5,4.83-11.24,1-4.26,2.65-8.42,2.72-12.73Z" transform="translate(-4.98 -5)"/><path id="p62-2" class="cls-11" d="M67.32,240.67c3.36,3.45,6.46,7.15,9.75,10.67l1.41,1.53c4.47,4.91,8.85,9.89,13.39,14.72l1.79,2c3.8,4.28,7.76,8.41,11.49,12.75a72.42,72.42,0,0,0,5.74,5.75A103.82,103.82,0,0,0,121.45,300c1.88,2.44,4,4.69,6,7a34.46,34.46,0,0,1,2.36,3.28c-1.3,0-2.59,0-3.89.06h-.4c-19.22-21.68-39-43-58.34-64.57a13.69,13.69,0,0,0-2.08-1.87,25.79,25.79,0,0,0-9,8.8l1.39,1.3c2.68,2.29,5.06,4.87,7.66,7.25,17.29,16.72,34.92,33.12,52.15,49.9-1.13.24-2.24.51-3.35.81l-1.18-.59c-3.75-2.82-6.83-6.48-10.41-9.52l-3-2.86c-2.43-2.47-5-4.85-7.46-7.26-.75-.69-1.52-1.35-2.28-2-4.82-4.45-9.32-9.44-14.49-13.48-5.77,2.22-11.53,5-17.55,6.39,5.76-1.94,11.27-4.48,17-6.4l-.31-1C69.44,270,63.93,265.35,59,260.29c-4,1.53-7.37,3.58-11.64,4.35A88.76,88.76,0,0,0,58,260.26c-1.08-2.93-4.86-4.49-6-7.31a26.06,26.06,0,0,1,11.11-11.89c1.26-.54,3.07-1.8,4.21-.39Z" transform="translate(-4.98 -5)"/><path id="p63-2" class="cls-11" d="M307.56,239.72c.8.32,1.6.65,2.39,1a27.4,27.4,0,0,1,11.51,11.62l.17,1.35c-3.65,3.64-7.45,7.13-11.18,10.69-1.81,1.47-1,4.46-1.42,6.63-1.11,6.53.54,12.65-1.31,19-.27,2.76,0,5.56-.19,8.33-.1-4.54-.49-8.92.81-13.33.27-6-.08-12,.39-18-1.83.23-2.67,1.59-3.92,2.73-3.75,3.76-7.78,7.24-11.44,11.08-1.1,6.5-.52,12.94-.84,19.47a164.66,164.66,0,0,1,.23-18.32c-2.15.69-3.63,2.89-5.33,4.37-4.48,4.14-8.76,8.5-13.22,12.65-1,.9-1.84,1.86-2.78,2.77-3.72,3.18-7.3,6.73-10.74,10.22-1.43-.32-2.87-.64-4.31-.9,16.86-16.4,34.11-32.48,51-48.82,2.55-2.49,5.08-5,7.76-7.34a10.85,10.85,0,0,0,2.24-2.72c-2.66-3.37-5.2-6.47-9.23-8.28q-28.36,31.23-56.69,62.5a32,32,0,0,1-2.89,3.38c-1.47.78-3.55.44-5.18.48l2-2.26c2.28-2.72,4.57-5.43,6.92-8.09a96.78,96.78,0,0,0,7-7.74c.49-.55,1-1.09,1.49-1.62,5.28-5.61,10.59-11.35,15.57-17.23l.89-1.07c5.28-5.14,10-10.87,15-16.26.79-.85,1.59-1.7,2.37-2.56,4.35-4.52,8.25-9.65,12.93-13.73Z" transform="translate(-4.98 -5)"/><path id="p64-2" class="cls-12" d="M65.13,243.91a13.69,13.69,0,0,1,2.08,1.87c19.33,21.59,39.12,42.89,58.34,64.57-2.76.1-5.52.42-8.25.75-17.23-16.78-34.86-33.18-52.15-49.9h2.12c-.59-3.49-5.29-5.61-7-8.84,1.75-2,4.25-3.38,5.92-5.41.1-2.19-2.32-.76-3.24-.13-2.34,1.76-5.07,4-5.5,7.1l-1.39-1.24A25.82,25.82,0,0,1,65.13,243.91Z" transform="translate(-4.98 -5)"/><path id="p65-2" class="cls-5" d="M140.08,243.75c-1.11,3.49-3.91,5.69-4.91,9.26-.41,1.42-.31,2.9,1,3.78,2.13,1.67,5.33,1,7.84.92.16-.93.31-1.85.46-2.78.27,1.72.59,3.43.94,5.14-11,7.4-22.7,13.72-34.44,19.79a36.19,36.19,0,0,1-5.82,2.53c-3.73-4.34-7.69-8.47-11.49-12.75a18.34,18.34,0,0,1,3.66-2.37c8-3.91,16-7.83,23.7-12.32,6.59-3.34,12.45-8,19.06-11.2Z" transform="translate(-4.98 -5)"/><path id="p66-2" class="cls-13" d="M144.07,244a11.44,11.44,0,0,1,4.05.71c3.92,1.38,7.92,2.42,11.93,3.5,3,.67,6,1.27,9,1.67,3.29.53,6.59,1,9.9,1.36a87.86,87.86,0,0,0,21.13,0,96.74,96.74,0,0,0,10.15-1.68l1.82-.43A57.13,57.13,0,0,0,223,245.9c2.37-.85,4.24-2.17,6.86-1.77.49,3.87-.49,7.38-1.23,11.13-.32,1.81-.55,3.64-.89,5.45a124.93,124.93,0,0,1-6.66,17.13c-.55.93-1.13,1.84-1.71,2.76A45.28,45.28,0,0,1,205.61,295c2.07,7.37,4.78,14.66,7.52,21.82l5.11.28-1.39,1.22a49,49,0,0,0-5.93.56c.42,1.84.75,3.59,2,5.1-.32,1.08-.6,2.18-.87,3.28a71.65,71.65,0,0,1-3.25-7c-1.12-2.26-3.82-1.36-5.82-1.35-1,.09-2,.17-3,.22-1.7,0-3.4-.12-5.11-.07l-3.74.13c-1.42,0-2.84.07-4.26.07-1.58,0-3.17-.08-4.75-.15-1.09,0-2.19-.07-3.28-.07-1.63,0-3.25.15-4.88.16l-3.09-.32c-2,0-3.93.22-5.91.34h-2c-1.75-.07-3.5-.14-5.25-.14-.7-.66-1.42-1.31-2.16-1.93,3.27-.17,6.53-.21,9.8-.17l1.54.07c6.74,0,13.6.85,20.32.26-2.15-6-4.82-12-7.41-17.88-11.85-1.77-21.53-9.43-27.18-19.81a127.38,127.38,0,0,1-7.21-19.5q-.54-2.56-.94-5.14c-.27-3.5-1.56-7.65-.4-11Z" transform="translate(-4.98 -5)"/><path id="p67-2" class="cls-12" d="M308.19,243.92c4,1.81,6.57,4.91,9.23,8.28a10.85,10.85,0,0,1-2.24,2.72c.37-.67.73-1.34,1.08-2a29,29,0,0,0-6.48-6.73c-1.38-.5-2.17-.23-2.39.8,2,2,4.35,3.57,6,6-2.27,2.55-4.9,4.73-7.23,7.24l1.27,2.08c-16.93,16.34-34.18,32.42-51,48.82a101.41,101.41,0,0,0-15.19-.58c1.32-1.59,2-2.52,4.28-2.48l-2,2.26c1.63,0,3.71.3,5.18-.48a32,32,0,0,0,2.89-3.38l56.6-62.55Z" transform="translate(-4.98 -5)"/><path id="p68-2" class="cls-14" d="M66.23,247c-1.67,2-4.17,3.36-5.92,5.41,1.67,3.23,6.37,5.35,7,8.84H65.19c-2.6-2.38-5-5-7.66-7.25.43-3.07,3.16-5.34,5.5-7.1C63.91,246.22,66.33,244.79,66.23,247Z" transform="translate(-4.98 -5)"/><path id="p69-2" class="cls-15" d="M309.78,246.17a29,29,0,0,1,6.48,6.73c-.35.68-.71,1.35-1.08,2-2.68,2.35-5.21,4.85-7.76,7.34l-1.27-2.08c2.33-2.51,5-4.69,7.23-7.24-1.64-2.4-4-4-6-6,.23-.93,1-1.25,2.4-.75Z" transform="translate(-4.98 -5)"/><path id="p70-2" class="cls-16" d="M147.25,248.82a17,17,0,0,1,5.38,1,36,36,0,0,0,19.92,12.7,63.78,63.78,0,0,0,27.6.67c8.42-1.66,16.17-5.8,21-13.09,1.62-.44,3.25-.82,4.89-1.16a75.1,75.1,0,0,1-11.38,32.59c-2.94-2-6.13-2.84-9.49-3.84a75.3,75.3,0,0,0-47.79,3,74.53,74.53,0,0,1-10.13-31.87Z" transform="translate(-4.98 -5)"/><path id="p71-2" class="cls-8" d="M152.63,249.84c22.57,6.14,46,7.51,68.5.28-4.81,7.29-12.56,11.43-21,13.09a63.78,63.78,0,0,1-27.6-.67,36,36,0,0,1-19.9-12.7Z" transform="translate(-4.98 -5)"/><path id="p72-2" class="cls-5" d="M256.71,249.82c.13,3.41.7,6.75,1,10.13.79,10.71.69,21.55,1.64,32.24-2.23,2.69-4.51,5.27-7,7.74a21,21,0,0,0-7.21,3c.17-5.93-.1-11.85-.06-17.78,1.85-.57,3.52-.63,4.61-2.47C252.15,278,253,272.18,254,267c.91-5.74,2.11-11.38,2.72-17.15Z" transform="translate(-4.98 -5)"/><path id="p73-2" class="cls-5" d="M324.9,250.87c1.66.34,2.67,2.39,3.73,3.58,3.23,4.32,7.85,8.3,9.08,13.66.84,3.2,1.33,7.9-.87,10.67-1.12,1.58-3,1.65-4.69.94-2.49-1-4.29-3.88-5.92-5.94-.93-1.37-2.54-3.07-2.4-4.81A130.39,130.39,0,0,1,324.9,250.87Z" transform="translate(-4.98 -5)"/><path id="p75-2" class="cls-5" d="M321.63,253.69c.93,4.27.24,8.91.19,13.27-.63,9-1.08,18-2.13,26.93-.93,4.94-4.07,10.64-8.8,12.8-2.06.82-3.5-.77-3.65-2.73-.54-1.29.19-3.83-1.71-3.81-.33,2.48-.58,5-.75,7.44a26.91,26.91,0,0,0-10.45.88A55,55,0,0,0,274.21,299c4.46-4.15,8.74-8.51,13.22-12.65,1.7-1.48,3.18-3.68,5.33-4.37a164.66,164.66,0,0,0-.23,18.32c.32-6.53-.26-13,.84-19.47,3.66-3.84,7.69-7.32,11.44-11.08,1.25-1.14,2.09-2.5,3.92-2.73-.47,6-.12,12-.39,18-1.3,4.41-.91,8.79-.81,13.33.16-2.77-.08-5.57.19-8.33,1.85-6.3.2-12.42,1.31-19,.41-2.17-.39-5.16,1.42-6.63,3.73-3.56,7.53-7,11.18-10.69Z" transform="translate(-4.98 -5)"/><path id="p74-2" class="cls-9" d="M240.87,253c.56,5.32,1.22,10.7,1.28,16,.18,1.51-2,2.33-3.06,3.11-5.37,3.08-10.43,7-16.11,9.42-.64-1.23-1.28-2.46-1.91-3.69a124.93,124.93,0,0,0,6.66-17.13c4.69-2.17,8.63-5.37,13.14-7.76Z" transform="translate(-4.98 -5)"/><path id="p76-2" class="cls-17" d="M145.41,260.07a127.38,127.38,0,0,0,7.21,19.5c-.88,1.92.15,3.32.78,5.12,4.52,10.76,8.9,21.57,13.49,32.31l-1.54-.07c-6.73-15.68-13.71-31.25-20.22-47q-1-2.54-2.23-5c-1.88.38-3.58,1.7-5.23,2.68-3.53,2.23-7.27,4.09-10.75,6.41a34.63,34.63,0,0,0,2.73,7.29c4.32,10.36,9.21,20.46,13.46,30.85l-2-.32c-4.4-9.6-9-19.09-13.36-28.72-1.21-2.58-2-5.15-3.72-7.48-5,2.24-9.8,5-14.59,7.59.49,1.63.94,3.28,1.4,4.92a72.42,72.42,0,0,1-5.74-5.75,36.19,36.19,0,0,0,5.82-2.53c11.74-6.08,23.49-12.4,34.44-19.8Z" transform="translate(-4.98 -5)"/><path id="p77-2" class="cls-5" d="M142.9,264.92c.81,1.63,1.54,3.3,2.23,5,6.51,15.78,13.49,31.35,20.22,47-3.27,0-6.53,0-9.8.17a30.58,30.58,0,0,0-12.44-5c-4.25-10.39-9.14-20.49-13.46-30.85a34.63,34.63,0,0,1-2.73-7.29c3.48-2.32,7.22-4.18,10.75-6.41,1.65-.92,3.31-2.24,5.23-2.62Z" transform="translate(-4.98 -5)"/><path id="p78-2" class="cls-18" d="M29.46,270.16c1.77-1,3.44.46,2,2.19C30.23,273.74,28.81,271.13,29.46,270.16Z" transform="translate(-4.98 -5)"/><path id="p79-2" class="cls-5" d="M242.06,273c.26,2.15,2.16,6.19-1.09,6.84-5.43,2.17-11.06,3.91-16.64,5.67l-1-1.27c6.25-3.66,12.31-7.87,18.73-11.24Z" transform="translate(-4.98 -5)"/><path id="p80-2" class="cls-5" d="M323.41,274.09a24.52,24.52,0,0,1,4.71,5.87c-1,3.83-2.44,8.8-5.93,11.09C322.53,285.4,323.08,279.75,323.41,274.09Z" transform="translate(-4.98 -5)"/><path id="p81-2" class="cls-19" d="M205.15,277.71c3.36,1,6.55,1.86,9.49,3.84-4.39,6.18-10.27,11.17-17.6,13.44a38.42,38.42,0,0,1-21,0,33,33,0,0,1-18.65-14.32A75.34,75.34,0,0,1,205.15,277.71Z" transform="translate(-4.98 -5)"/><path id="p82-2" class="cls-5" d="M124.08,275.63c1.68,2.33,2.51,4.9,3.72,7.48,4.33,9.63,9,19.12,13.36,28.72-2.78-.23-4.8-3.5-7.07-5-3.73-2.7-8-6-12.64-6.81a103.62,103.62,0,0,1-10.56-11.89c-.46-1.64-.91-3.29-1.4-4.92C114.28,280.58,119.09,277.87,124.08,275.63Z" transform="translate(-4.98 -5)"/><path id="p83-2" class="cls-20" d="M191.14,278c1.88-1.14,4.79-.71,6.9-.5s5.31,1.28,6.19,3.42c-.21,1.51-2,1.69-3.18,1.79a15.63,15.63,0,0,1-9.39-2.41,1.71,1.71,0,0,1-.52-2.3Z" transform="translate(-4.98 -5)"/><path id="p84-2" class="cls-5" d="M152.62,279.57c5.65,10.38,15.33,18,27.18,19.81,2.59,5.87,5.26,11.84,7.41,17.88-6.72.59-13.58-.26-20.32-.26-4.59-10.74-9-21.55-13.49-32.31-.63-1.8-1.66-3.2-.78-5.12Z" transform="translate(-4.98 -5)"/><path id="p85-2" class="cls-5" d="M219.36,280.6c2,2.12,2.48,5.7,3.55,8.41,2.36,7.75,5.61,15.29,7.51,23.16a29.49,29.49,0,0,0-12.18,4.91l-5.11-.28c-2.74-7.16-5.45-14.45-7.52-21.82a45.29,45.29,0,0,0,13.75-14.38Z" transform="translate(-4.98 -5)"/><path id="p86-2" class="cls-5" d="M242.89,282c0,6.2.76,12.56,0,18.72-4.12,1.38-8.19,3.46-12.48,4.15-.38-1.15-.75-2.3-1.13-3.45,3.35-1.42,6.74-5.73,6.78-9.43.21-3-3.15-4.07-5.27-5.34A100.64,100.64,0,0,1,242.89,282Z" transform="translate(-4.98 -5)"/><path id="p87-2" class="cls-9" d="M230.81,286.61c2.12,1.27,5.48,2.3,5.27,5.34,0,3.7-3.43,8-6.78,9.43-1.35-4.36-3.33-8.64-4.16-13.13,1.84-.57,3.78-1.11,5.67-1.64Z" transform="translate(-4.98 -5)"/><path id="p88-2" class="cls-5" d="M90.15,292l1.75-.31c2.5,2.41,5,4.79,7.46,7.26-1.59.43-3.18.88-4.75,1.37C92.84,297.64,91.06,295.1,90.15,292Z" transform="translate(-4.98 -5)"/><path id="p89-2" class="cls-5" d="M89,292.84c.82,2.51.92,5.92-2.19,6.76-2.87.65-6.24-.87-8.46-2.65,3.22-1.72,7-3.64,10.65-4.11Z" transform="translate(-4.98 -5)"/><path id="p90-2" class="cls-5" d="M204.06,296c2.88,6.83,5.24,13.87,8,20.76-5,.59-10,.18-15,.53-2.9.08-6,.43-8.86-.17-1.83-5.92-4.83-11.23-6.19-17.2,4.49-.41,8.64.18,13.07-.91,3.14-.61,5.9-2,9-3Z" transform="translate(-4.98 -5)"/><path id="p91-2" class="cls-7" d="M75,298c2.9,1.21,4.84,3.34,8.22,3.57,3.46.85,5.56-.55,8.33-2.29l.87,1.81a51.81,51.81,0,0,0-12.84,7.4,51.1,51.1,0,0,0-6.84-1.25c1.15-1.39,2.26-2.81,3.28-4.3-3.92,1-6.74,3.68-11,4-2.62.26-6.77.06-8.11-2.69C63,302.2,69,299.93,75,298Z" transform="translate(-4.98 -5)"/><path id="p92-2" class="cls-21" d="M99.36,299l3,2.86c-8.06,2.11-15.59,5-21.86,10.64A39.86,39.86,0,0,0,68.85,331c-3.29,8.74-5,17.73-3.09,27A28.71,28.71,0,0,0,76.7,375.3c7.1,5.43,16.59,8.18,25.33,9.44a40,40,0,0,0,29.66-7.07,6.65,6.65,0,0,0,1.77-2c-5.23,0-9.91.61-15-1.09a2.76,2.76,0,0,1-.16-3.38c6.87,1.36,13.85,1.59,20.64-.35,4.89-2.75,9.89-7.73,11-13.4-8.61.18-17.35-.11-25.94-.76-1.56-.1-3.28-.47-2.75-2.5.39-1.62,2.08-1,3.3-1A250.82,250.82,0,0,0,151,354c4-2.75,7.89-9.63,5.6-14.51a8.8,8.8,0,0,0-3.55-1.23c-10.35-2-20.52-3.21-31-1.79-2.55.28-1.86-1.46-1.81-3.15,11.53-2.22,24.42-.22,35.8,1.88,1.19-.18,1.25-2.25,1.56-3.22a11.39,11.39,0,0,0-3.41-11.09c-4.85-4.42-11-5-17.14-6-9.55-2-18.88-.72-28.14,1.91-1.89.68-2.88-.7-2.55-2.44,1.77-1.51,4.6-1.28,6.42-3l1.18.59c1.11-.3,2.22-.57,3.35-.81,2.73-.33,5.49-.65,8.25-.75h.4c2.1.17,4.2.33,6.3.41.22-1.9-3.08-3.91-4.77-3.75-2.06-2.29-4.15-4.54-6-7,4.63.77,8.91,4.11,12.64,6.81,2.27,1.49,4.29,4.76,7.07,5l2,.32a30.58,30.58,0,0,1,12.44,5c.74.62,1.46,1.27,2.16,1.93.87,1.24,1.72,2.5,2.53,3.77A24.62,24.62,0,0,1,161,333c-.39,1.33-.82,2.64-1.12,4a36.83,36.83,0,0,1,1.06,7.53c-.6,1.81-1.21,3.63-1.93,5.39a45.7,45.7,0,0,1-3.34,4.72c-1.85,1.79-2.14,3.06-2.51,5.54-.39.87-.81,1.71-1.25,2.55-.93,1.46-1.88,2.92-2.9,4.31a48.85,48.85,0,0,1-4.06,4.08c-1,.68-2,1.34-2.94,2-.77.6-1.53,1.23-2.25,1.9-1.53,1.53-3,3.13-4.62,4.53l-1.47,1.2q-2.37,1.5-4.77,2.93a43.36,43.36,0,0,1-13.05,4.4c-1.23.19-2.46.37-3.69.51l-1,.09-2.07.08c-10.54-.3-21.65-2.68-30.81-8.08-3.19-1.7-5.73-5.07-9.25-5.58-6.78-1.46-12.47-6.31-16-12.19-5.06-8.52-6.61-18.75-5.5-28.51.88-6.92,3.11-13.78,7.8-19.08,2.42-2.77,5.38-4.39,8.45-6.32a39.32,39.32,0,0,1,8.92-1.79,51.1,51.1,0,0,1,6.84,1.25,51.81,51.81,0,0,1,12.84-7.4c.71-.27,1.44-.53,2.17-.77,1.6-.46,3.19-.91,4.78-1.29Z" transform="translate(-4.98 -5)"/><path id="p93-2" class="cls-21" d="M274.21,299a55,55,0,0,1,20.12,9.48,26.91,26.91,0,0,1,10.45-.88,33.41,33.41,0,0,1,5,1.59,28.47,28.47,0,0,1,8.67,6.36c4.19,4.85,6.46,11.15,7.44,17.42,1.25,10.3.16,20.64-5.15,29.72a25.57,25.57,0,0,1-14.8,12.11c-1.85.6-3.62.63-5.11,2-9.16,7.85-22,11.18-33.81,11.93a3.83,3.83,0,0,0-2.27.85c-4-1.72-8.75-1.08-12.89-2.89-2.38-.88-4.71-1.92-7.08-2.83-1.53-1-3.09-2-4.61-3-3-2.13-5.24-5.08-8.13-7.34a33.67,33.67,0,0,1-10.93-11.58l-.28-.68c-.45-2.17-.55-4.18-2.15-5.88a36.57,36.57,0,0,1-5.24-7.85l-.57-1.41c0-1.93,0-3.86.1-5.79,1.21-2.59,1.43-3.21.1-5.84a32.08,32.08,0,0,1-.77-3.22c-.07-1.33-.15-2.67-.23-4,.27-1.1.55-2.2.87-3.28a37.31,37.31,0,0,1,3.92-5.66l1.39-1.22a29.49,29.49,0,0,1,12.18-4.91l2.5-.33c1.52-.36,2.46-1.4,3.6-2.38a90.3,90.3,0,0,1,7.13-5.66l1.53-.88a21,21,0,0,1,7.21-3c-2.35,2.66-4.64,5.37-6.92,8.09-2.28,0-3,.89-4.28,2.48a101.41,101.41,0,0,1,15.19.58c1.44.26,2.88.58,4.31.9,1.88.71,6.18.82,6.77,3a10.74,10.74,0,0,1-1.37,2.11c-9.84-3-19.88-4.38-30-2.2-6.46,1.06-12.6,1.66-17.34,6.73-3.65,3.86-3.46,8.81-1.69,13.51,11.44-2,23.36-4.06,35-2.23a1.73,1.73,0,1,1,.11,3.46c-11.29-1.48-22.56-.13-33.63,2.23-2.1.21-2.05,2.77-2.22,4.37.44,4.5,3,7.71,5.91,10.92,9.59.27,19.22-.2,28.79-.85a1.72,1.72,0,0,1,0,3.43,236.87,236.87,0,0,1-26.77.91c-.59,2.51,1.75,5.32,3.18,7.23,2.75,3,6.36,6.8,10.65,7,4.62.57,9.3,1.11,13.89.08,1.55-.1,2.9-1.18,3.94.47.63,1.64-.47,2.29-1.85,2.72-4.86,1.38-9.8.81-14.76.53a39,39,0,0,0,30.8,9.54,66.05,66.05,0,0,0,19.7-5.3c7-3.32,13.17-8.41,16.29-15.69,4-9.4,3.17-19.53.17-29.07-1.37-3.85-2.56-8-4.5-11.57a41.29,41.29,0,0,0-24.55-19.75c-1.92-.55-3.83-1.11-5.71-1.78.86-.94,1.75-1.9,2.7-2.8Z" transform="translate(-4.98 -5)"/><path id="p94-2" class="cls-8" d="M102.36,301.8c3.58,3,6.66,6.7,10.41,9.52-1.82,1.67-4.65,1.44-6.42,3-.33,1.74.66,3.12,2.55,2.44,9.26-2.63,18.59-3.86,28.14-1.91,6.15,1,12.29,1.56,17.14,6a11.39,11.39,0,0,1,3.41,11.09c-.31,1-.37,3-1.56,3.22-11.43-2.15-24.32-4.15-35.84-1.89,0,1.69-.74,3.43,1.81,3.15,10.53-1.42,20.7-.17,31.05,1.79a8.8,8.8,0,0,1,3.55,1.23c2.29,4.88-1.59,11.76-5.6,14.51a250.82,250.82,0,0,1-26.44-.76c-1.22.06-2.91-.61-3.3,1-.53,2,1.19,2.4,2.75,2.5,8.59.65,17.33.94,25.94.76-1.12,5.67-6.12,10.65-11,13.4-6.79,1.94-13.77,1.71-20.64.35a2.76,2.76,0,0,0,.16,3.38c5.09,1.7,9.77,1.09,15,1.09a6.65,6.65,0,0,1-1.77,2,40,40,0,0,1-29.72,7c-8.74-1.26-18.23-4-25.33-9.44A28.7,28.7,0,0,1,65.76,358c-1.9-9.29-.2-18.28,3.09-27A39.86,39.86,0,0,1,80.5,312.5C86.77,306.75,94.3,303.91,102.36,301.8Z" transform="translate(-4.98 -5)"/><path id="p95-2" class="cls-8" d="M271.43,301.76c1.88.67,3.79,1.23,5.71,1.78a41.29,41.29,0,0,1,24.55,19.75c1.94,3.6,3.13,7.72,4.5,11.57,3,9.54,3.82,19.67-.17,29.07-3.12,7.28-9.25,12.37-16.29,15.69a66.05,66.05,0,0,1-19.7,5.3,39,39,0,0,1-30.8-9.54c5,.28,9.9.85,14.76-.53,1.38-.43,2.48-1.08,1.85-2.72-1-1.65-2.39-.57-3.94-.47-4.59,1-9.27.49-13.89-.08-4.29-.17-7.9-4-10.65-7-1.43-1.91-3.77-4.72-3.18-7.23a236.87,236.87,0,0,0,26.77-.91,1.72,1.72,0,0,0,0-3.43c-9.57.65-19.2,1.12-28.79.85-2.93-3.21-5.47-6.42-5.91-10.92.17-1.6.12-4.16,2.22-4.37,11.07-2.36,22.34-3.71,33.63-2.23a1.73,1.73,0,0,0-.11-3.46c-11.66-1.83-23.58.22-35,2.23-1.77-4.7-2-9.65,1.69-13.51,4.74-5.07,10.88-5.67,17.34-6.73,10.17-2.18,20.21-.76,30,2.2a10.74,10.74,0,0,0,1.37-2.11c-.59-2.19-4.89-2.3-6.77-3,3.51-3.47,7.09-7,10.81-10.2Z" transform="translate(-4.98 -5)"/><path id="p96-2" class="cls-5" d="M242,303.15l1.66.65a90.3,90.3,0,0,0-7.13,5.66,8.74,8.74,0,0,1-3.6,2.38c-.53-1.5-1-3-1.52-4.53A78.35,78.35,0,0,1,242,303.15Z" transform="translate(-4.98 -5)"/><path id="p97-2" class="cls-22" d="M127.48,307c1.69-.16,5,1.85,4.77,3.75-2.1-.08-4.2-.24-6.3-.41,1.3,0,2.59,0,3.89-.06A34.46,34.46,0,0,0,127.48,307Z" transform="translate(-4.98 -5)"/><path id="p98-2" class="cls-8" d="M76.12,311.11c-4.07,5.32-8.05,10.32-10,16.88C62,338.49,60,349.32,62.64,360.47c.89,3.78,2.9,6.9,4.43,10.41a23,23,0,0,1-9-7c-5.59-7.22-7.76-17-7.3-26,.36-6.11,1.91-12.71,5.41-17.82C60.61,313.71,68.29,309.83,76.12,311.11Z" transform="translate(-4.98 -5)"/><path id="p99-2" class="cls-8" d="M297.86,311.09c6.46-1,12.45,1.61,17.1,5.94,4.34,4.62,6.72,11.16,7.56,17.36,1.15,10.32-.58,21.53-7.23,29.81-2.17,2.45-5.13,5.61-8.47,6.18,1.48-3.14,3.17-6,4-9.41,2.87-10.2,1-21.32-2.63-31.09a44.42,44.42,0,0,0-7.07-14c-1.14-1.59-2.55-2.89-3.26-4.79Z" transform="translate(-4.98 -5)"/><path id="p100-2" class="cls-23" d="M216.85,318.3a37.31,37.31,0,0,0-3.92,5.66,11.14,11.14,0,0,1-2-5.1A49,49,0,0,1,216.85,318.3Z" transform="translate(-4.98 -5)"/><path id="p101-2" class="cls-24" d="M157.71,319c1.75,0,3.5.07,5.25.14,0,4.29,1.92,8,4.65,11.23,1.33,1.37,2.67,2.77,4.72,2.83.92-2.93-1.56-5.38-2.59-8a13.88,13.88,0,0,0-4.82-6c2-.12,3.93-.31,5.91-.34a18,18,0,0,0,6.63,12.64,3.84,3.84,0,0,0,3,1c.7-3-1.5-4.86-2.59-7.49a18.87,18.87,0,0,0-4-5.84c1.63,0,3.25-.11,4.88-.16a18.7,18.7,0,0,0,7,12.19,2.56,2.56,0,0,0,2.34.77c1-1.47,0-3.13-.67-4.49-1.73-3-2.56-6.13-5.39-8.4,1.58.07,3.17.14,4.75.15,1.15,5.15,4.11,10.31,9,12.62a3.69,3.69,0,0,0,.08-3.83c-1.65-3-2.64-6.34-4.85-8.86l3.74-.13c1.39,4.76,3.78,9.58,8.2,12.18,1,0,1.46-.72,1.3-2.3-1.22-3.36-3.08-6.47-4.39-9.81,1,0,2-.13,3-.22,1.36,4.54,4.21,11.13,9.32,12.34a32.08,32.08,0,0,0,.77,3.22c-1.87,1.94-.89,3.7-.1,5.84-.08,1.93-.13,3.86-.1,5.79-2.16-3.3-2.41-7.23-5.38-9.57a4.32,4.32,0,0,0-3.43-1.57c-.78,2.92.43,5.65,1.71,8.22,1.65,2.89,3.6,5.57,6.87,6.69l.8-2.36a36.57,36.57,0,0,0,5.24,7.85c1.6,1.7,1.7,3.71,2.15,5.88-1.36-3.37-3.47-8-7.68-8.25-.83,5.82,3.43,13.22,8.66,15.78,1.54-2.5.06-4.42-.7-6.85a33.63,33.63,0,0,0,11,11.6c-.25,5.28,3.8,12.17,8.75,14.24,1.85-2.55.36-4.38-.62-6.9,1.52,1,3.08,2,4.61,3A11.28,11.28,0,0,0,249,388.1l2.87-1.44c4.14,1.81,8.93,1.17,12.89,2.89l.14,1.18-1.41.24q-1.05.18-2.1.39c-.58,3.9,1.11,8,3.55,11,.32,2.09.62,4.19,1,6.27-3.21.66-2.14,3.57-1.6,5.87.86,2.18,1.77,5.21,3.83,6.56l.1-2.06a81.1,81.1,0,0,1,1.84,9c-1-.21-1.91-.39-2.87-.56a3.36,3.36,0,0,0-.81,3.46,22.25,22.25,0,0,0,5.38,10.31,6.26,6.26,0,0,0,3.51,2.19c1.41,4.43,3.92,8.69,4.8,13.22l-.88.41c-1.4-2.8-2.23-6.59-4.62-8.65-1.69-1.41-3.11-3-5.52-2.35-.67,4.81,1.61,8.22,4,12.1-1,.11-2,.24-2.92.38-3.09-3.78-2.75-8-6.65-11-1.08-.78-3.13-2.64-4.41-1.47-1.46,4.47,2.11,9.29,4.2,13-1,.09-2,.2-3.08.34-3.28-4.3-3-9-7.28-12.27-1.37-1.08-3.78-3.09-4.43-.16-.23,4.59,2.69,9.39,5.49,12.86-1.47,0-2.93.1-4.39.15-.64-2.89-2.36-5.32-3.25-8.15a11.56,11.56,0,0,0-5.59-6.52c-1.48-.93-2.51.28-2.54,1.75,0,4.94,3,9.16,5.85,12.92h-4.6c-.65-2.86-2.28-5.23-3.18-8-.87-3.43-3.85-6.82-7.41-7.49-1.51,2.15-.75,4.39-.08,6.7a26.26,26.26,0,0,0,5.27,8.63c-1.61,0-3.22-.17-4.82-.26-1.29-3.55-2.93-6.92-4.15-10.5-1.39-2.09-4.13-5.52-7-4.91-1.43,5.55,2.35,10.48,5,15-1.54-.08-3.07,0-4.61,0-.17-3-1.85-5.12-2.67-8-.82-3.42-3.92-7.55-7.63-7.88-2.36,4.88,2.17,11.23,4.7,15.26-1.49-.12-3-.16-4.49-.21-.56-3-2.22-5.48-3-8.4a11.5,11.5,0,0,0-6.49-7.47,2.09,2.09,0,0,0-1.58,1.78c-.42,4.93,2.67,9.06,4.83,13.19-1.29,0-2.59-.09-3.89-.11-.94-2.78-2.27-5.38-3.13-8.19-.7-3.19-3.32-5.85-6.14-7.32-1.21.11-1.82.58-1.84,1.41-.65,4.76,2.45,9.41,4.72,13.33-1.43-.18-2.86-.28-4.29-.39-.64-2.77-2-5.23-2.77-8-.66-3-3.28-5.55-5.88-7l-1.82.06c-1.47,5.08,1.87,9.65,4,14-1.22-.1-2.44-.17-3.67-.22-2.19-4.17-2.69-10-6.39-12.94a6.53,6.53,0,0,0-3.95-1.88c-2.07,4.73,1.62,10.21,3.92,14.21-1.24-.12-2.49-.21-3.73-.27-2.66-4.28-2.64-9.74-6.51-12.75-1-.78-2.49-2.32-3.85-1.66a2.81,2.81,0,0,0-.86,2.42c.24,4.24,2.57,7.5,4.2,11.29h-3.13c-2.92-4.61-2.63-9.49-6.71-12.72-1.34-1.15-2.46-2-4.33-1.53-1.4,4.94,2,10.26,4.87,14.08-1.43-.07-2.86-.12-4.29-.14-2.59-5.42-2.73-10.41-7.86-13.77a2.9,2.9,0,0,0-3.09-.51C134.58,444,138,449,141,453c-1.51,0-3-.16-4.52-.23-1.23-3.42-2.72-6.78-4.13-10.12-1.38-2-4.39-5.36-7.07-4.39-1.18,5.17,2.8,10.82,5.8,14.71a41.47,41.47,0,0,1-9.25-.11,14.12,14.12,0,0,1,4.33-1.08c-1.27-3-2.72-6-3.85-9-1.47-2-4.5-5.56-7.3-4.76-1.34,5.51,2.88,11.21,6.36,15.08-5,1.65-10.91,1.23-16.15,2.24-1.53-1.75-3.56-1.91-4.16.65-2.06.64-4.06,1.43-6.16,2,1.64-1.07.86-1.84-.28-2.87q1.18-3.17,2.46-6.28l3.15,3.06H106c-2.33-3.55-3.24-8.11-6-11.26a33.55,33.55,0,0,0,2-6.26c2,.94,4,.77,6.17.74-.52-3.25-2.87-6.14-3.9-9.32.64-2.45,1.24-4.92,1.76-7.4,1.72,0,3.44.06,5.17,0-.76-2.82-2.24-5.06-3.62-7.62.61-3,1.21-6,1.63-9,1.59-.06,3.19,0,4.78,0-.75-3-2.3-5.35-3.69-8,.25-1.67.51-3.34.82-5l1-.09a23,23,0,0,0,6.2,13l4.78.19c-.38-2.81-2.27-5.06-3.1-7.8-.7-2.51-2.45-4.06-4.19-5.87a43.34,43.34,0,0,0,13-4.4,6.64,6.64,0,0,0,5.38,1.6,20.93,20.93,0,0,0-.61-4.53l1.47-1.2c1.81,2.15,4.52,7.57,8,5.56l.28-1.15c-1-3.06-2.75-5.81-3.64-8.94.72-.67,1.48-1.3,2.25-1.9,1.11,4.88,3.29,9.38,7.32,12.5h2.57c1.22-2.6-1.68-5.55-2.32-8.14-.75-2.81-2.5-4.55-4.63-6.39A46.88,46.88,0,0,0,149,367c1.87,1.12,2.67,1.6,4.86.74a8.93,8.93,0,0,0-2-5c.44-.84.86-1.68,1.25-2.55,1.81,2.67,3.36,5.75,6,7.66A3,3,0,0,0,162,368c1-1.84-1.22-4.35-1.81-6.14-1.09-3-2.13-5.13-4.59-7.21a45.7,45.7,0,0,0,3.34-4.72c1.27.43,2.73,1.46,4.08,1,1.44-2-1-4.84-2.15-6.44a36.83,36.83,0,0,0-1.06-7.53c.3-1.36.73-2.67,1.12-4l3.15,1.07a4.79,4.79,0,0,0,.28-3.12,63.7,63.7,0,0,0-4.17-8.14C159.43,321.53,158.58,320.27,157.71,319Z" transform="translate(-4.98 -5)"/><path id="p102-2" class="cls-25" d="M163,319.17h2a13.88,13.88,0,0,1,4.82,6c1,2.67,3.51,5.12,2.59,8-2-.06-3.39-1.46-4.72-2.83A16.74,16.74,0,0,1,163,319.17Z" transform="translate(-4.98 -5)"/><path id="p103-2" class="cls-25" d="M170.83,318.87l3.09.32a18.87,18.87,0,0,1,4,5.84c1.09,2.63,3.29,4.52,2.59,7.49a3.84,3.84,0,0,1-3-1,18,18,0,0,1-6.63-12.65Z" transform="translate(-4.98 -5)"/><path id="p104-2" class="cls-25" d="M178.8,319c1.09,0,2.19,0,3.28.07,2.83,2.27,3.66,5.38,5.39,8.4.71,1.36,1.71,3,.67,4.49a2.56,2.56,0,0,1-2.34-.77A18.7,18.7,0,0,1,178.8,319Z" transform="translate(-4.98 -5)"/><path id="p105-2" class="cls-25" d="M186.83,319.25c1.42,0,2.84,0,4.26-.07,2.21,2.52,3.2,5.85,4.85,8.86a3.69,3.69,0,0,1-.08,3.83c-4.88-2.31-7.88-7.47-9-12.62Z" transform="translate(-4.98 -5)"/><path id="p106-2" class="cls-25" d="M194.83,319.05c1.71,0,3.41,0,5.11.07,1.31,3.34,3.17,6.45,4.39,9.81.16,1.58-.27,2.34-1.3,2.3C198.61,328.63,196.22,323.81,194.83,319.05Z" transform="translate(-4.98 -5)"/><path id="p107-2" class="cls-25" d="M203,318.9c2,0,4.71-.93,5.84,1.32a71.65,71.65,0,0,0,3.25,7c.08,1.33.16,2.67.23,4C207.18,330,204.33,323.44,203,318.9Z" transform="translate(-4.98 -5)"/><path id="p108-2" class="cls-26" d="M160.24,322.8a63.7,63.7,0,0,1,4.17,8.14,4.79,4.79,0,0,1-.28,3.12L161,333A24.75,24.75,0,0,0,160.24,322.8Z" transform="translate(-4.98 -5)"/><path id="p109-2" class="cls-25" d="M195.45,335.33c2.43-.49,5.41,2.65,6.22,4.74,1.16,3.67,3.67,5.87,3.13,9.75-2.51.17-4.28-2.12-5.73-3.86-2.09-2.89-4.26-7-3.62-10.63Z" transform="translate(-4.98 -5)"/><path id="p110-2" class="cls-25" d="M204,335a4.32,4.32,0,0,1,3.43,1.57c3,2.34,3.22,6.27,5.38,9.57l.57,1.41-.8,2.36c-3.27-1.12-5.22-3.8-6.87-6.69C204.48,340.6,203.27,337.87,204,335Z" transform="translate(-4.98 -5)"/><path id="p111-2" class="cls-27" d="M213.06,334.46c1.33,2.63,1.11,3.25-.1,5.84C212.17,338.16,211.19,336.4,213.06,334.46Z" transform="translate(-4.98 -5)"/><path id="p112-2" class="cls-25" d="M170.45,336.33c1.41-.3,2.12.19,3.21,1,3.07,2.08,3.63,6,5.72,9.26,1,1.43.64,2.74.49,4.35-3.16-.64-5.31-3.36-7-5.92-1.41-2.53-3-5.7-2.42-8.69Z" transform="translate(-4.98 -5)"/><path id="p113-2" class="cls-25" d="M180.8,336.23a11.74,11.74,0,0,1,4.83,5.84c1.07,3,3.34,5,2.62,8.3a4,4,0,0,1-2.73-.93A19.26,19.26,0,0,1,178.81,339c-.49-1.61-.24-4,2-2.76Z" transform="translate(-4.98 -5)"/><path id="p114-2" class="cls-25" d="M188,335.44c3.78,1.42,5.3,4.44,6.61,8,.69,1.53,4,6.73.42,6.6-3.67-2.14-6.29-6.23-7.64-10.18C187.18,338.7,186.27,335.69,188,335.44Z" transform="translate(-4.98 -5)"/><path id="p115-2" class="cls-25" d="M163,336.42c5.28,2,5.44,6.3,8.07,10.54.81,1.21.63,2.48.78,3.87a4.79,4.79,0,0,1-2.43-.28c-3.48-2.16-5.88-6.24-7-10.1-.22-1.26-1-3.39.58-4Z" transform="translate(-4.98 -5)"/><path id="p116-2" class="cls-28" d="M160.92,344.52c1.13,1.6,3.59,4.48,2.15,6.44-1.35.41-2.81-.62-4.08-1,.72-1.81,1.33-3.63,1.93-5.44Z" transform="translate(-4.98 -5)"/><path id="p117-2" class="cls-25" d="M179.35,353.31c3.65,1.45,5.33,4.16,6.58,7.7.66,2,4.24,6.44,1.12,7.62-4.06-1.78-6.84-6.52-8.27-10.54C178.41,356.51,177.52,354.27,179.35,353.31Z" transform="translate(-4.98 -5)"/><path id="p118-2" class="cls-25" d="M187.27,353.07c4.26,1,6.08,4.38,7.45,8.2.68,1.88,3.55,5.41,1.34,7.08-1.69.16-3.33-1.84-4.45-3C188.88,362.06,186.2,357.54,187.27,353.07Z" transform="translate(-4.98 -5)"/><path id="p119-2" class="cls-25" d="M196.17,353c3.89,1.21,5.83,4.2,7.08,7.89.64,2.06,3.21,5.2,1.78,7.22-1.67.94-4.07-1.89-5.11-3-2.33-3.11-5.4-8.32-3.75-12.11Z" transform="translate(-4.98 -5)"/><path id="p120-2" class="cls-25" d="M205.14,353c4.36,1.1,5.79,5,7.2,8.79.83,2.12,2.24,3.58,1.49,6a2,2,0,0,1-2.46-.18c-3.15-2.21-5.31-6-6.56-9.54C204.4,356.44,203.6,354.3,205.14,353Z" transform="translate(-4.98 -5)"/><path id="p121-2" class="cls-25" d="M213.14,353c4.21.2,6.32,4.88,7.68,8.25l.28.68c.76,2.43,2.24,4.35.7,6.85-5.23-2.57-9.49-10-8.66-15.78Z" transform="translate(-4.98 -5)"/><path id="p122-2" class="cls-25" d="M161.25,354.15a1.76,1.76,0,0,1,2.49.1h0c3,1.93,4,4.58,5.24,7.72.77,2,2.51,3.79,1.93,5.93-2.36,1.62-4.53-1.35-5.9-3-2-2.8-4.51-7.15-3.77-10.76Z" transform="translate(-4.98 -5)"/><path id="p123-2" class="cls-25" d="M169.85,353.63c3.6-.41,6.41,4.27,7.36,7.23.9,2.76,3.56,5,1.6,7.9a9.14,9.14,0,0,1-4.48-3.12c-2.72-3.26-5.08-7.65-4.48-12Z" transform="translate(-4.98 -5)"/><path id="p124-2" class="cls-25" d="M155.65,354.63c2.46,2.08,3.5,4.26,4.59,7.21.59,1.79,2.8,4.3,1.81,6.14a3,3,0,0,1-2.89-.15c-2.66-1.91-4.21-5-6-7.66C153.51,357.69,153.8,356.42,155.65,354.63Z" transform="translate(-4.98 -5)"/><path id="p125-2" class="cls-29" d="M151.89,362.72a8.93,8.93,0,0,1,2,5c-2.19.86-3,.38-4.86-.74C150,365.64,151,364.18,151.89,362.72Z" transform="translate(-4.98 -5)"/><path id="p126-2" class="cls-25" d="M144.93,371.11c2.13,1.84,3.88,3.58,4.63,6.39.64,2.59,3.54,5.54,2.32,8.14h-2.57c-4-3.12-6.21-7.62-7.32-12.5,1-.69,2-1.35,2.94-2Z" transform="translate(-4.98 -5)"/><path id="p127-2" class="cls-25" d="M153,370.78c2.54,1.64,4.69,3.78,5.5,6.79.75,2.78,3.41,5.38,2.45,8.22h-2.71a20.63,20.63,0,0,1-7-11.8c-.08-1.64-.53-3.44,1.79-3.21Z" transform="translate(-4.98 -5)"/><path id="p128-2" class="cls-25" d="M160.27,371.18c2.06-.74,3.2.72,4.59,2,1.77,1.63,2.2,3.68,3.14,5.78.63,2,3.12,4.89,1.83,6.86-2.74,1-4.57-1.75-6.06-3.57-2.05-3-4.35-7.41-3.5-11.07Z" transform="translate(-4.98 -5)"/><path id="p129-2" class="cls-25" d="M171,371.06a10.81,10.81,0,0,1,5.13,5.86c1,3.34,3.31,5.42,3,9.07a5,5,0,0,1-2.86-.24,19.49,19.49,0,0,1-7-10.78C169.11,373.38,168.19,370.24,171,371.06Z" transform="translate(-4.98 -5)"/><path id="p130-2" class="cls-25" d="M178.14,371c3.42-.23,6.41,3.81,7.23,6.78.74,2.65,3.31,5.38,2.58,8.12-1.63,1.3-3.24-.36-4.43-1.42C180.21,381,177.4,376,178.14,371Z" transform="translate(-4.98 -5)"/><path id="p131-2" class="cls-25" d="M188.08,371c4.27,1.5,5.63,4.92,7.06,8.85.7,1.91,2.5,3.94,1.73,6-.77,1.43-1.8.81-2.83.11a20,20,0,0,1-6.89-11c-.17-.83-.67-4.39.93-4Z" transform="translate(-4.98 -5)"/><path id="p132-2" class="cls-25" d="M196.29,371.09c3.4.34,6,3.69,7,6.79,1,3.31,3.34,5.3,2.55,8.92-2.71.46-4.85-2.4-6.31-4.3-2.09-3.21-4.47-7.51-3.24-11.41Z" transform="translate(-4.98 -5)"/><path id="p133-2" class="cls-25" d="M206,371.08c6,2.66,6.21,7.63,8.78,12.93v2.78a3.83,3.83,0,0,1-3.53-1,21,21,0,0,1-5.85-9.29c-.4-2-1.27-4,.6-5.42Z" transform="translate(-4.98 -5)"/><path id="p134-2" class="cls-25" d="M215,371.4c4.19,1.39,5.6,4.77,6.92,8.62.92,2.34,2.41,3.9,1.74,6.59-1.94,1.31-3.11-.58-4.54-1.72a20,20,0,0,1-5.24-10.9C213.7,372.64,214.09,371.79,215,371.4Z" transform="translate(-4.98 -5)"/><path id="p135-2" class="cls-25" d="M223.21,372.06l.81-.6c4.08,1.48,5.53,4.79,6.82,8.63.84,2.28,2.55,3.93,1.77,6.47-2,1.8-4.16-1.27-5.49-2.64C224.86,381,222,375.76,223.21,372.06Z" transform="translate(-4.98 -5)"/><path id="p136-2" class="cls-25" d="M232,373.49c2.89,2.26,5.09,5.21,8.13,7.34,1,2.52,2.47,4.35.62,6.9C235.83,385.66,231.78,378.77,232,373.49Z" transform="translate(-4.98 -5)"/><path id="p137-2" class="cls-25" d="M139.74,375c.89,3.13,2.63,5.88,3.64,8.94l-.28,1.15c-3.46,2-6.17-3.41-8-5.56A55,55,0,0,0,139.74,375Z" transform="translate(-4.98 -5)"/><path id="p138-2" class="cls-30" d="M133.65,380.77a20.93,20.93,0,0,1,.61,4.53,6.64,6.64,0,0,1-5.38-1.6C130.48,382.75,132.07,381.78,133.65,380.77Z" transform="translate(-4.98 -5)"/><path id="p139-2" class="cls-31" d="M244.77,383.81c2.37.91,4.7,2,7.08,2.83L249,388.08A11.26,11.26,0,0,1,244.77,383.81Z" transform="translate(-4.98 -5)"/><path id="p140-2" class="cls-25" d="M115.83,388.1c1.74,1.81,3.49,3.36,4.19,5.87.83,2.74,2.72,5,3.1,7.8l-4.78-.19a23,23,0,0,1-6.2-13c1.23-.11,2.46-.29,3.69-.48Z" transform="translate(-4.98 -5)"/><path id="p141-2" class="cls-25" d="M122.17,388.06a2,2,0,0,1,2.53.24,11.12,11.12,0,0,1,4.8,6.27c.58,2.37,2.91,4.84,2.65,7.25-1.45-.13-3.42.38-4.71-.31a22.77,22.77,0,0,1-4.9-8.09C122,391.63,121.33,389.87,122.17,388.06Z" transform="translate(-4.98 -5)"/><path id="p142-2" class="cls-25" d="M133,387.82c6,3.08,5.58,8.19,8.84,13.32-1.27,1-4.07,1.81-5.26.27a21,21,0,0,1-5.23-9.52C131.12,390.07,130.33,387.82,133,387.82Z" transform="translate(-4.98 -5)"/><path id="p143-2" class="cls-25" d="M141,388c2.44-.14,5.13,2.76,6.21,4.76,1,3.15,2.79,6,3.72,9.16-1.29.31-2.57.62-3.85,1a21,21,0,0,1-6.22-9.88C140.5,391.47,140.16,389.39,141,388Z" transform="translate(-4.98 -5)"/><path id="p144-2" class="cls-25" d="M151.07,388.06a10.2,10.2,0,0,1,6.26,6.8c.73,2.65,3,5.16,2.64,7.89-1.33,0-3.3.69-4.27-.47a18.8,18.8,0,0,1-6-12.35c.14-1.38.59-2,1.37-1.87Z" transform="translate(-4.98 -5)"/><path id="p145-2" class="cls-32" d="M109.1,388.78l2.07-.08c-.31,1.66-.57,3.33-.82,5-.41,2.66-.74,5.33-1.09,8-.42,3-1,6-1.63,9-.54,2.53-1,5.07-1.55,7.6s-1.12,5-1.76,7.4c-.73,2.87-1.59,5.7-2.27,8.58a33.55,33.55,0,0,1-2,6.26c-1.09,2.7-1.93,5.47-3,8.19q-1.27,3.12-2.46,6.28a19.05,19.05,0,0,0-1,2.15l1.28.72c2.1-.52,4.1-1.31,6.16-2a5.38,5.38,0,0,0,4.16-.65c5.24-1,11.14-.59,16.15-2.24l.46-.21a41.47,41.47,0,0,0,9.25.11c1.8-.14,3.6-.23,5.4-.2,1.51.07,3,.18,4.52.23h5.7c1.43,0,2.86.07,4.29.14,2,.11,4.11.2,6.17.17h3.13a32.92,32.92,0,0,0,7,.7c1.24.06,2.49.15,3.73.27,2.13.29,4.27.53,6.42.61,1.23,0,2.45.12,3.67.22a44.48,44.48,0,0,0,6.49.92c1.43.11,2.86.21,4.29.39a42.88,42.88,0,0,0,6.39.77c1.3,0,2.6.06,3.89.11a24.74,24.74,0,0,0,6.28.9c1.5,0,3,.09,4.49.21a42.09,42.09,0,0,0,5.6.63h4.61a30.4,30.4,0,0,0,6.1.43c1.6.09,3.21.22,4.82.26l5.4.15h10.13c1.46,0,2.92-.11,4.39-.15a53.85,53.85,0,0,0,6.22-.43c1-.14,2-.25,3.08-.34a30.93,30.93,0,0,0,6.86-.51c1-.14,1.94-.27,2.92-.38a34.62,34.62,0,0,0,6.15-1.1l.88-.41c-.88-4.53-3.39-8.79-4.8-13.22-1.92-5.07-3.23-10.35-5.21-15.4a81.1,81.1,0,0,0-1.84-9c-.93-3.42-1.54-6.91-2.33-10.37-.41-2.08-.71-4.18-1-6.27-.52-3.8-1.11-7.58-1.45-11.4l1.41-.24c2.77,21.35,8.07,42.75,16.83,62.47.73,1.62,1,3.78-.27,5.2-1,1.19-3,1.6-4.51,2-10.59,2.59-22,3-32.9,3.3a463.59,463.59,0,0,1-57.92-3.87,448.12,448.12,0,0,0-57.08-3.4c-10.63.19-21.59.81-32,3-1.84.36-3.2.48-4.57-1-1.69-1.6-1.31-3.65-.41-5.55,9.12-20.34,14.15-41.84,17.08-64.05Z" transform="translate(-4.98 -5)"/><path id="p146-2" class="cls-25" d="M159,388.88l1-.63c6.51,1.51,6.76,9,9.68,13.87a13.64,13.64,0,0,1-3.39,1.59C162.1,400.22,158.69,394.49,159,388.88Z" transform="translate(-4.98 -5)"/><path id="p147-2" class="cls-25" d="M170,388.32c2.58,1.34,5.1,3.74,5.88,6.64.88,2.7,2.39,5.07,3.09,7.84-1,.32-2.62,1.59-3.58.77a20,20,0,0,1-6.89-11C168.29,390.78,167.58,388.69,170,388.32Z" transform="translate(-4.98 -5)"/><path id="p148-2" class="cls-25" d="M179,388.26a20.87,20.87,0,0,1,2.86,1.9c3.32,2.53,3.71,7.2,5.89,10.92,1,2.21-.44,3.46-2.64,3-4.31-3-7.06-8.55-7.63-13.73A4.67,4.67,0,0,1,179,388.26Z" transform="translate(-4.98 -5)"/><path id="p149-2" class="cls-25" d="M187.19,389.09c1.74-1.09,3.48,1,4.68,2,2.13,1.87,2.41,4.26,3.5,6.72.56,1.76,2.7,4.35,1.6,6.11-1.86,1.85-3.8-.59-5.11-1.87C189.11,398.76,186.15,393.52,187.19,389.09Z" transform="translate(-4.98 -5)"/><path id="p150-2" class="cls-25" d="M196.38,389.28,198,389c3.65,1.87,5.37,4.86,6.5,8.66.63,2.11,3.36,5.15,1.4,7.1-1.44,1-3.55-1.14-4.5-2.11-3-3.47-5.82-8.65-5-13.36Z" transform="translate(-4.98 -5)"/><path id="p151-2" class="cls-25" d="M206.2,389a10.5,10.5,0,0,1,6.79,7,57.63,57.63,0,0,0,2.44,5.51c.59,1.59.91,3.81-1.41,4-3.39-1.67-5.57-5.12-7.12-8.43-1.09-2.7-2.05-5.27-.7-8.08Z" transform="translate(-4.98 -5)"/><path id="p152-2" class="cls-25" d="M216,389.29a11.74,11.74,0,0,1,6.4,7.18c1,3.43,3.42,5.52,2.34,9.31-2.79-.06-4.64-2.25-6.2-4.3-1.89-2.78-3.56-6.13-3.79-9.52A2.88,2.88,0,0,1,216,389.29Z" transform="translate(-4.98 -5)"/><path id="p153-2" class="cls-25" d="M226,389.92a11.22,11.22,0,0,1,5.54,6.58c1,3.53,3.53,5.66,2.48,9.52-2.79,0-4.44-2-6-4-2.06-2.92-3.84-6.4-4-10-.15-1.59.51-2.27,2-2.1Z" transform="translate(-4.98 -5)"/><path id="p154-2" class="cls-25" d="M234.1,390c4.34.63,6.52,5.37,7.66,9.14.85,2.24,2.69,4.37,1.35,6.83a2.47,2.47,0,0,1-2.64-.5c-3.09-2.25-5.21-6-6.44-9.54-.6-2-1.29-4,.07-5.93Z" transform="translate(-4.98 -5)"/><path id="p155-2" class="cls-25" d="M244,390.17a12.54,12.54,0,0,1,3.94,2.86c2.11,2.13,2.43,5.4,3.93,8.11,1,1.91,1.65,3.87,0,5.65-5.17-2.12-8.5-8.51-9.13-13.83a2.49,2.49,0,0,1,1.26-2.79Z" transform="translate(-4.98 -5)"/><path id="p156-2" class="cls-25" d="M254,390.79c5.16,2.7,5.17,7,7.53,11.61,1,1.56.53,2.75.22,4.41-2.18.11-3.51-1.28-4.91-2.73A20.18,20.18,0,0,1,252,394c.07-1.76-.65-3.66,1.93-3.2Z" transform="translate(-4.98 -5)"/><path id="p157-2" class="cls-25" d="M261.37,391.34q1-.21,2.1-.39c.34,3.82.93,7.6,1.45,11.4-2.44-3-4.13-7.11-3.55-11Z" transform="translate(-4.98 -5)"/><path id="p158-2" class="cls-25" d="M110.35,393.7c1.39,2.67,2.94,5.06,3.69,8-1.59-.07-3.19-.07-4.78,0C109.61,399,110,396.36,110.35,393.7Z" transform="translate(-4.98 -5)"/><path id="p159-2" class="cls-25" d="M111.65,404.37a11,11,0,0,1,6,6.83c.72,2.37,2.64,4.58,2.75,7l-4.5.19a21.13,21.13,0,0,1-6.1-11.47C109.93,405.52,109.59,403.69,111.65,404.37Z" transform="translate(-4.98 -5)"/><path id="p160-2" class="cls-25" d="M130.35,404.32c6.65,2.72,6.56,8.6,9.66,14.3-1.64,0-4.14,1.17-5.31-.33a21.93,21.93,0,0,1-5.23-9.43c-.17-1.54-.82-3.65.88-4.54Z" transform="translate(-4.98 -5)"/><path id="p161-2" class="cls-25" d="M122,404.72a10.81,10.81,0,0,1,5.4,6.75c.68,2.35,2.68,4.63,2.5,7.08-1.34-.07-3.1.39-4.32-.18a19.72,19.72,0,0,1-5.9-10.37C119.26,406.18,119.42,403.23,122,404.72Z" transform="translate(-4.98 -5)"/><path id="p162-2" class="cls-25" d="M139.18,405.07c2.13-1,5.33,2.63,6.4,4.28,1,3.22,3,6.33,3.6,9.6-1.3.27-2.59.54-3.89.84C142,416.35,137.76,410,139.18,405.07Z" transform="translate(-4.98 -5)"/><path id="p163-2" class="cls-25" d="M150,405.16a11.09,11.09,0,0,1,6.38,7.61c.68,2.28,2.4,4.35,2.45,6.71l-3.79.83c-3.49-3.7-6.48-8.12-6.57-13.39.23-1.48.74-2.07,1.53-1.76Z" transform="translate(-4.98 -5)"/><path id="p164-2" class="cls-25" d="M161,406.08c5.24,3.26,4.67,8.14,7.86,13.07a8.89,8.89,0,0,1-3.65,1.84,21.41,21.41,0,0,1-7.09-13c-.19-2.09.88-3.29,2.88-1.91Z" transform="translate(-4.98 -5)"/><path id="p165-2" class="cls-25" d="M169.09,405.76a10.82,10.82,0,0,1,6.54,7.6c.69,2.44,2.79,4.8,2.27,7.32l-2.6,1A19.84,19.84,0,0,1,167.75,408c0-1.44.43-2.17,1.34-2.23Z" transform="translate(-4.98 -5)"/><path id="p166-2" class="cls-25" d="M180.2,406.71c3.33,2,4.48,4.9,5.57,8.45.63,1.75,2.23,3.7,2,5.6-1.07,1.26-2.63,1.65-3.91.4-3.61-3.17-6.38-8.4-6.48-13.23.47-2.14,1.09-2.22,2.82-1.22Z" transform="translate(-4.98 -5)"/><path id="p167-2" class="cls-25" d="M188.36,406.32c4.32,1.78,5.72,5.17,7.11,9.29.62,1.46,1.34,2.83,1.85,4.32s-1.12,3.49-2.59,2.41c-3.69-2.26-6.11-6.85-7.31-10.89-.34-1.72-1.09-4.2.94-5.13Z" transform="translate(-4.98 -5)"/><path id="p168-2" class="cls-25" d="M198.08,406.86c4.29,1.54,5.65,5.11,7,9.09.73,2,4.17,6.84,0,7.2-4.32-2.38-7.17-7.48-8.21-12.17C196.65,409.89,196.26,406.64,198.08,406.86Z" transform="translate(-4.98 -5)"/><path id="p169-2" class="cls-25" d="M210.77,409.22c3.15,2.74,3.09,6.13,5.12,9.83,1,1.82.69,3,0,4.86-4.12-1.49-6.38-4.94-8.18-8.72-.9-2.15-1.78-4.61-1.35-7,1-2.4,3.27,0,4.41,1Z" transform="translate(-4.98 -5)"/><path id="p170-2" class="cls-25" d="M217,407.46a11.3,11.3,0,0,1,6.65,7.6c.89,3.33,3.34,5.32,2.26,8.9-2.78,0-4.4-2-6-4a20.37,20.37,0,0,1-4.1-10,2.39,2.39,0,0,1,1.19-2.53Z" transform="translate(-4.98 -5)"/><path id="p171-2" class="cls-25" d="M226,408c4.13.16,6.83,5.53,7.83,9,.58,1.61,1.85,3.19,1.95,4.91.27,2-.78,3.09-2.66,1.85-3-1.85-5.05-5.26-6.51-8.36-.8-2-1.83-5.33-.61-7.4Z" transform="translate(-4.98 -5)"/><path id="p172-2" class="cls-25" d="M235.93,408.15c6.67,2.3,6.62,8.34,9.61,13.78a7.1,7.1,0,0,1-.7,3c-4-.92-7-5.59-8.52-9.15C235.53,413.69,234,410,235.93,408.15Z" transform="translate(-4.98 -5)"/><path id="p173-2" class="cls-25" d="M248.71,410.24c3.67,2.77,3.54,6.46,5.75,10.27.92,1.47.53,2.8.45,4.41-2.78.14-4.38-1.92-6.06-3.81-2.4-3-4.4-7.23-4.2-11.17.73-2.38,2.88-.61,4.06.3Z" transform="translate(-4.98 -5)"/><path id="p174-2" class="cls-25" d="M256,409c4,1.86,5.49,5.2,6.84,9.15,1,2.33,2.54,3.78,1.84,6.51l-1.57.59c-4.5-2.3-7.56-7.52-8.68-12.32C254.42,411.13,253.36,408.84,256,409Z" transform="translate(-4.98 -5)"/><path id="p175-2" class="cls-33" d="M266,408.62c.79,3.46,1.4,7,2.33,10.37l-.1,2.06c-2.06-1.35-3-4.38-3.83-6.56C263.81,412.19,262.74,409.28,266,408.62Z" transform="translate(-4.98 -5)"/><path id="p176-2" class="cls-34" d="M107.63,410.67c1.38,2.56,2.86,4.8,3.62,7.62h-5.17C106.61,415.74,107.09,413.2,107.63,410.67Z" transform="translate(-4.98 -5)"/><path id="p177-2" class="cls-25" d="M109,421a11.86,11.86,0,0,1,6.27,6.91c.81,2.44,2.37,4.53,3,7-1.73.13-3.46.23-5.2.3-2.49-3-4.89-6.31-5.73-10.2-.1-1.9-1.2-4.26,1.66-4Z" transform="translate(-4.98 -5)"/><path id="p178-2" class="cls-25" d="M119.64,421.35a11.39,11.39,0,0,1,5.57,6.5c.83,2.47,2.23,4.68,3,7.18-1.61.09-3.58.77-5.11.18-3.13-3.19-5.75-7.73-6-12.27C117.15,421.23,118,420.52,119.64,421.35Z" transform="translate(-4.98 -5)"/><path id="p179-2" class="cls-25" d="M128.92,421.23c2.67,1.17,5.41,3.84,6.15,6.73.71,2.64,2.4,4.83,3,7.48-1.51.12-3.38.84-4.8.34A21.15,21.15,0,0,1,127.13,424c-.15-1.3,0-3.14,1.79-2.76Z" transform="translate(-4.98 -5)"/><path id="p180-2" class="cls-25" d="M138.36,421.32c6.85,2.67,6.71,8.59,9.78,14.41-1.31.16-3.47,1.42-4.67.77a23.24,23.24,0,0,1-6-10C137.13,424.61,136.45,422.62,138.36,421.32Z" transform="translate(-4.98 -5)"/><path id="p181-2" class="cls-25" d="M149,421.93a11.26,11.26,0,0,1,6.12,7c.67,2.58,2.48,4.82,2.72,7.45l-3.58,1.21a22,22,0,0,1-7-11.62C147.12,424.34,146.54,421.87,149,421.93Z" transform="translate(-4.98 -5)"/><path id="p182-2" class="cls-25" d="M158.29,422.22a10.8,10.8,0,0,1,6.9,7.74c.72,2.38,2,4.49,2.81,6.83-1.19.46-2.63,1.74-3.93,1.35a23,23,0,0,1-6.55-10.64c-.4-2-1.13-3.86.77-5.28Z" transform="translate(-4.98 -5)"/><path id="p183-2" class="cls-25" d="M169,423a11.37,11.37,0,0,1,6,7c.72,2.69,2.26,5,3,7.71l-3,1.59c-3.88-2.44-6.31-7.2-7.55-11.48-.24-1.74-1.26-5.16,1.55-4.82Z" transform="translate(-4.98 -5)"/><path id="p184-2" class="cls-25" d="M178.34,423.31c4.1,1.64,6.22,5,7.25,9.17.65,1.85,1.8,3.64,2.08,5.58a3.25,3.25,0,0,1-2.6,1.9c-3.94-2.38-6.5-7.18-7.65-11.52C177,426.51,176.45,424.65,178.34,423.31Z" transform="translate(-4.98 -5)"/><path id="p185-2" class="cls-25" d="M189.6,424.4c3.55,2.09,5,5.09,6,9,.53,2.08,3.6,5.57.76,7-1.06,1.1-2.6-.7-3.43-1.34-3.32-3.34-5.9-8.34-5.92-13.1C187.19,424.32,188.06,423.54,189.6,424.4Z" transform="translate(-4.98 -5)"/><path id="p186-2" class="cls-25" d="M199.8,425.2c3.44,2.19,4.78,5.09,5.86,8.87.53,1.82,3,5.17,1.3,6.77-1.47,1.36-2.63-.12-3.76-1A19.41,19.41,0,0,1,197,427C196.87,425,198.08,424.08,199.8,425.2Z" transform="translate(-4.98 -5)"/><path id="p187-2" class="cls-25" d="M207.39,425.26c4.3-.06,7.22,5.68,8.14,9.28.71,2.28,3.18,5,1.39,7.29-2,.87-4.4-1.91-5.51-3.28C208.78,435.16,205.9,429.58,207.39,425.26Z" transform="translate(-4.98 -5)"/><path id="p188-2" class="cls-25" d="M104.32,425.67c1,3.18,3.38,6.07,3.9,9.32-2.16,0-4.16.2-6.17-.74.68-2.88,1.54-5.71,2.27-8.58Z" transform="translate(-4.98 -5)"/><path id="p189-2" class="cls-25" d="M217.2,426.11c1.45-.82,3.07.67,4.13,1.54,3.47,2.84,3.31,6.47,5.52,10.43,1.11,1.88.66,2.92,0,4.84-3.74-.88-6.38-4.62-8-7.84-1.35-2.56-2.74-6.16-1.65-9Z" transform="translate(-4.98 -5)"/><path id="p190-2" class="cls-25" d="M227.3,426.08a8.44,8.44,0,0,1,4.3,2.31c2.86,2.33,3.17,6.56,5.14,9.83,1.15,1.8.82,2.91.31,4.85-3.27-.06-5.71-3.32-7.32-5.81C227.8,433.91,225.85,430,227.3,426.08Z" transform="translate(-4.98 -5)"/><path id="p191-2" class="cls-25" d="M237.12,427a2.13,2.13,0,0,1,2.55.31c3.33,2,4.52,4.9,5.69,8.44.79,2.07,4.2,6.69.69,7.79-4-1.71-7-6.24-8.46-10.21-.67-1.83-1.49-4.45-.47-6.33Z" transform="translate(-4.98 -5)"/><path id="p192-2" class="cls-25" d="M247.13,427.05c1.44-.26,2.93,1,4,1.81,3.36,2.71,3.37,6.31,5.71,10.25,1.15,1.88.79,2.88,0,4.81-4.54-1-7.45-5.71-9.16-9.71-.76-2.1-1.79-5.1-.55-7.16Z" transform="translate(-4.98 -5)"/><path id="p193-2" class="cls-25" d="M257.2,427a10.73,10.73,0,0,1,4.28,2.51c2.89,2.38,3.18,6.4,5.27,9.68,1.17,1.83.85,2.86.24,4.82-3.31-.38-6-3.71-7.67-6.33-1.79-3-3.86-7.18-2.12-10.68Z" transform="translate(-4.98 -5)"/><path id="p194-2" class="cls-25" d="M267.25,427.41c1,.17,1.92.35,2.87.56,2,5,3.29,10.33,5.21,15.4a6.22,6.22,0,0,1-3.51-2.19,22.25,22.25,0,0,1-5.38-10.31,3.36,3.36,0,0,1,.81-3.46Z" transform="translate(-4.98 -5)"/><path id="p195-2" class="cls-25" d="M104.36,438.28c2-1.36,3.44.21,5,1.37,3.69,2.85,4.23,8.14,6.84,12.09-1.87,0-4.19.66-5.94,0C107.06,448.41,103.78,443.07,104.36,438.28Z" transform="translate(-4.98 -5)"/><path id="p196-2" class="cls-25" d="M115,437.93c2.8-.8,5.83,2.73,7.3,4.76,1.13,3.08,2.58,6,3.85,9a14.12,14.12,0,0,0-4.33,1.08l-.46.21C117.9,449.14,113.68,443.44,115,437.93Z" transform="translate(-4.98 -5)"/><path id="p197-2" class="cls-25" d="M125.29,438.2c2.68-1,5.69,2.43,7.07,4.39,1.41,3.34,2.9,6.7,4.13,10.12-1.8,0-3.6.06-5.4.2-3-3.92-7-9.54-5.8-14.71Z" transform="translate(-4.98 -5)"/><path id="p198-2" class="cls-25" d="M135.76,438.67a2.9,2.9,0,0,1,3.09.51c5.13,3.36,5.27,8.35,7.86,13.77H141C138,449,134.58,444,135.76,438.67Z" transform="translate(-4.98 -5)"/><path id="p199-2" class="cls-25" d="M146.13,439c1.87-.43,3,.38,4.33,1.53,4.08,3.23,3.79,8.11,6.71,12.72q-3.09,0-6.17-.17c-2.82-3.8-6.27-9.08-4.87-14.08Z" transform="translate(-4.98 -5)"/><path id="p200-2" class="cls-25" d="M157,439.53c1.36-.66,2.82.88,3.85,1.66,3.87,3,3.85,8.47,6.51,12.75a32.92,32.92,0,0,1-7-.7c-1.63-3.79-4-7-4.2-11.29a2.77,2.77,0,0,1,.84-2.42Z" transform="translate(-4.98 -5)"/><path id="p201-2" class="cls-25" d="M167.13,440a6.53,6.53,0,0,1,4,1.88c3.7,2.9,4.2,8.77,6.39,12.94-2.15-.08-4.29-.32-6.42-.61-2.3-4-6-9.47-3.92-14.21Z" transform="translate(-4.98 -5)"/><path id="p202-2" class="cls-25" d="M100.06,440.51c2.73,3.15,3.64,7.71,6,11.26h-5.79l-3.15-3.06C98.13,446,99,443.21,100.06,440.51Z" transform="translate(-4.98 -5)"/><path id="p203-2" class="cls-25" d="M177.16,441.05,179,441c2.6,1.44,5.22,4,5.88,7,.72,2.75,2.13,5.21,2.77,8a44.48,44.48,0,0,1-6.49-.92c-2.16-4.37-5.45-8.94-4-14Z" transform="translate(-4.98 -5)"/><path id="p204-2" class="cls-25" d="M189,441.61c2.82,1.47,5.44,4.13,6.14,7.32.86,2.81,2.19,5.41,3.13,8.19a42.88,42.88,0,0,1-6.39-.77c-2.27-3.92-5.37-8.57-4.72-13.33,0-.83.63-1.3,1.84-1.41Z" transform="translate(-4.98 -5)"/><path id="p205-2" class="cls-25" d="M199,442.26a11.5,11.5,0,0,1,6.49,7.47c.82,2.92,2.48,5.41,3,8.4a24.74,24.74,0,0,1-6.28-.9C200,453.1,196.94,449,197.36,444A2.09,2.09,0,0,1,199,442.26Z" transform="translate(-4.98 -5)"/><path id="p206-2" class="cls-25" d="M208.27,443.08c3.71.33,6.81,4.46,7.63,7.88.82,2.89,2.5,5.06,2.67,8a42.09,42.09,0,0,1-5.6-.63C210.44,454.31,205.91,448,208.27,443.08Z" transform="translate(-4.98 -5)"/><path id="p207-2" class="cls-25" d="M218.17,444c2.83-.61,5.57,2.82,7,4.91,1.22,3.58,2.86,7,4.15,10.5a30.4,30.4,0,0,1-6.1-.43c-2.7-4.5-6.48-9.43-5.05-15Z" transform="translate(-4.98 -5)"/><path id="p208-2" class="cls-25" d="M228.91,444.38c3.56.67,6.54,4.06,7.41,7.49.9,2.76,2.53,5.13,3.18,8l-5.4-.15a26.26,26.26,0,0,1-5.27-8.63C228.16,448.77,227.4,446.53,228.91,444.38Z" transform="translate(-4.98 -5)"/><path id="p209-2" class="cls-25" d="M240.79,445.24a11.56,11.56,0,0,1,5.59,6.52c.89,2.83,2.61,5.26,3.25,8.15H244.1c-2.89-3.76-5.81-8-5.85-12.92,0-1.47,1.06-2.68,2.54-1.75Z" transform="translate(-4.98 -5)"/><path id="p210-2" class="cls-25" d="M253,447.06c4.32,3.27,4,8,7.28,12.27a53.85,53.85,0,0,1-6.22.43c-2.8-3.47-5.72-8.27-5.49-12.86.63-2.91,3-.91,4.43.16Z" transform="translate(-4.98 -5)"/><path id="p211-2" class="cls-25" d="M259.12,446c1.28-1.17,3.33.69,4.41,1.47,3.9,3,3.56,7.24,6.65,11a30.93,30.93,0,0,1-6.86.51C261.23,455.28,257.66,450.46,259.12,446Z" transform="translate(-4.98 -5)"/><path id="p212-2" class="cls-25" d="M269.11,446c2.41-.66,3.83.94,5.52,2.35,2.39,2.06,3.22,5.85,4.62,8.65a34.62,34.62,0,0,1-6.15,1.1C270.72,454.22,268.44,450.81,269.11,446Z" transform="translate(-4.98 -5)"/><path id="p213-2" class="cls-35" d="M105.23,455.25a5.38,5.38,0,0,1-4.16.65C101.67,453.34,103.7,453.5,105.23,455.25Z" transform="translate(-4.98 -5)"/><path id="p214-2" class="cls-36" d="M94.63,455c1.14,1,1.92,1.8.28,2.87l-1.28-.72A19.05,19.05,0,0,1,94.63,455Z" transform="translate(-4.98 -5)"/></g></g><g id="Layer_2-3" data-name="Layer 2-3"><g id="Layer_1-2-3" data-name="Layer 1-2-3"><path class="cls-37" d="M417,454.09a6.59,6.59,0,0,1-1.16-.3,11.67,11.67,0,0,1-7.06-6.9,6.83,6.83,0,0,1-.41-2.37V421.9h0a10.22,10.22,0,0,1,3.87-5.2,10.09,10.09,0,0,1,4.56-1.7c.23,0,.45,0,.68,0h3a215,215,0,0,0,33.8-2.92,15.28,15.28,0,0,0,6.77-2h0A29.25,29.25,0,0,0,463,404.2c.06-.29.1-.58.14-.88a344.87,344.87,0,0,0,2-37.2V114.33a332.07,332.07,0,0,0-1.36-41.24,22,22,0,0,0-.32-3.71A6.91,6.91,0,0,0,458.88,64c-.62-.21-1.24-.41-1.87-.58h0a186.87,186.87,0,0,0-35.49-2.92h-5.06a7.32,7.32,0,0,1-8.11-7.6V29.15a7.92,7.92,0,0,1,2.41-5.52,7.84,7.84,0,0,1,5.7-2.07h4.06c33.8,1.35,61.37,2,80.44,2s50.71,0,86.86-2h29.41c50.71,0,84.5,9.8,104.43,29.91a97.47,97.47,0,0,1,28.73,70.47A115.55,115.55,0,0,1,736.7,175a122,122,0,0,1-40.23,43.94,170.93,170.93,0,0,1-45.63,20.56,6.93,6.93,0,0,0-3.7,10.75c3.9,5.38,8.45,11.52,13.18,18.21l40.23,54.41c13,18.08,27.21,37,41.57,57.12a211.11,211.11,0,0,0,25.46,31,8.07,8.07,0,0,0,.82.73,17,17,0,0,0,7,3.1,6.84,6.84,0,0,0,1.28.11h13.94c.6,0,6.61-.25,8.78,3.19,1.3,2,1.69,6.14,1.75,6.72,0,.37,0,.68.07.88v20.31a9,9,0,0,1-1.82,5.7,9.33,9.33,0,0,1-7,3.43h-4.74a211.5,211.5,0,0,0-31.43-1.36c-12.93,0-27.69,0-42.64,1.33l-.57,0h-1.75a6.91,6.91,0,0,1-5.36-2.53c-12.91-15.71-34.16-44.86-63.4-86.2-32.15-46-65.41-89.22-98.87-128.26h0l-1.23-1.29a6.93,6.93,0,0,1-1.65-6.83l4.09-13.48a7,7,0,0,1,6.65-4.94h40.56a77.8,77.8,0,0,0,47.76-16.38h0a80.93,80.93,0,0,0,31.24-63.88h0a58.12,58.12,0,0,0-20.81-49.26,8.05,8.05,0,0,0-.66-.49,96.34,96.34,0,0,0-61-16.68,175.67,175.67,0,0,0-47.84,6.26h0a899.08,899.08,0,0,0-2.7,100.38v190a331.85,331.85,0,0,0,1.36,41.23,16.48,16.48,0,0,0,.69,4.37,7,7,0,0,0,4.36,4.51c.65.24,1.31.45,2,.64a8.27,8.27,0,0,0,.83.19,185.8,185.8,0,0,0,35.08,2.85h2.35a7.34,7.34,0,0,0,1.23-.13,6.66,6.66,0,0,1,8.22,7.05v23.83c0,.47-.19,4.79-3.71,7.11a8.09,8.09,0,0,1-4.38,1.28h-4.06l-50.71-2H499.9l-80.37,2h0Z" transform="translate(-4.98 -5)"/><path class="cls-37" d="M819,454a12.07,12.07,0,0,1-6.36-3.7,11.9,11.9,0,0,1-2.41-4.25V422.39a9.36,9.36,0,0,1,2.41-4.23,9.6,9.6,0,0,1,6.36-2.69h3.38a215,215,0,0,0,33.79-2.92,15.38,15.38,0,0,0,6.77-2,28.1,28.1,0,0,0,2-6.26,346.12,346.12,0,0,0,2-37.68V114.33a332.07,332.07,0,0,0-1.36-41.24,22.43,22.43,0,0,0-1.36-7.6,31.35,31.35,0,0,0-5.4-2,186.9,186.9,0,0,0-35.5-2.92H819.9a10.54,10.54,0,0,1-5.84-3.3,10.35,10.35,0,0,1-2.27-4.3V29.15a10.69,10.69,0,0,1,3.73-5.52,10.43,10.43,0,0,1,5-2.07l39.2,2h45l81.11-2H990a9.8,9.8,0,0,1,8.77,7.59V52.83a9.27,9.27,0,0,1-2,4.41,9.46,9.46,0,0,1-6.08,3.18h-3.38c-13,0-22.47,0-29.4,1.36a27.68,27.68,0,0,0-11,2.93,27.79,27.79,0,0,0-2,7.59c0,6.93-1.35,18.08-1.35,31.43V361.56a332,332,0,0,0,1.35,41.24,16.85,16.85,0,0,0,2,7.6,31.35,31.35,0,0,0,5.4,2,185.24,185.24,0,0,0,35.49,2.92h3.38a7.87,7.87,0,0,1,5.57,1.35,8,8,0,0,1,3.2,5.58v23.83a11.4,11.4,0,0,1-8.11,8.45h-4.06l-50.71-2H905.64l-80.43,2Z" transform="translate(-4.98 -5)"/><path class="cls-37" d="M1271.84,454.51h-5.41c-60.49-2-77.73-2-81.11-2l-81.11,2h-4.06a8.54,8.54,0,0,1-7.78-8.44V422.23a8.88,8.88,0,0,1,3.7-5.53,8.65,8.65,0,0,1,5.26-1.39h3.37a245.24,245.24,0,0,0,33.8-2.92,15.4,15.4,0,0,0,6.93-2,16.84,16.84,0,0,0,2-6.25,195.72,195.72,0,0,0,2-37.86V135.62c0-2.92,0-24.51-2-65.9H1113.6c-16.9,0-32.27,0-44.78,1.36a55.83,55.83,0,0,0-14.37,2A165.23,165.23,0,0,0,1051.08,99l-3.38,30.68a12.46,12.46,0,0,1-2.77,5,12.63,12.63,0,0,1-5.45,3.5h-19.26a10.7,10.7,0,0,1-6-3.5,10.44,10.44,0,0,1-2.31-5V125c0-46.3-1.36-76.37-2.7-90.4V29.67a9.16,9.16,0,0,1,2.09-6c2.13-2.44,5.14-2.86,6.87-3.1a15.62,15.62,0,0,1,4.06,0q48.82,3.06,164.41,3.06c78.41,0,134.19,0,165.12-2h4.74a9.77,9.77,0,0,1,7,3.53,9.44,9.44,0,0,1,2,5.6v4.89c-1.36,16.91-2.7,47.65-2.7,90.41v4.22a8.1,8.1,0,0,1-8.29,8.45h-21.91a11.76,11.76,0,0,1-4.17-2.52,12,12,0,0,1-3.43-5.93q-1.73-15-3.44-30a121.35,121.35,0,0,0-4.38-25.85V73a54.24,54.24,0,0,0-13.69-2c-10.3,0-21.29-1.35-33.8-1.35h-44c-1.36,37.17-2,59.48-2,65.9V361.23a330.57,330.57,0,0,0,1.36,41.39,16.83,16.83,0,0,0,1.35,6.93,10.77,10.77,0,0,0,5.59,2,187.09,187.09,0,0,0,35.83,2.92h3.37a8.05,8.05,0,0,1,6.08,2.2,7.84,7.84,0,0,1,2.21,4.73v24.68a8.5,8.5,0,0,1-7.63,8.4Z" transform="translate(-4.98 -5)"/><path class="cls-37" d="M1561.72,457.6a232,232,0,0,1-88.16-16.46A192.75,192.75,0,0,1,1403.67,393a189.76,189.76,0,0,1-41.61-73,274.54,274.54,0,0,1-12.79-76,248.15,248.15,0,0,1,12.79-82.24,196.13,196.13,0,0,1,43.59-72,218.33,218.33,0,0,1,73.94-51,257.51,257.51,0,0,1,97-17.59c65.78,0,120.06,18.26,160.17,54.93a194.81,194.81,0,0,1,60.35,150A241.4,241.4,0,0,1,1768,345.52a206,206,0,0,1-84.19,82.23A253.86,253.86,0,0,1,1561.72,457.6ZM1565,64.22a128.47,128.47,0,0,0-100.48,39.3c-24.5,26.48-36.67,67.26-36.67,120.22A252.76,252.76,0,0,0,1438.71,295,184.17,184.17,0,0,0,1470,359.42a129.6,129.6,0,0,0,109.14,52.29,142.64,142.64,0,0,0,72.69-18.26,112.91,112.91,0,0,0,47.52-57.06,226.5,226.5,0,0,0,16.46-91,243.82,243.82,0,0,0-19.71-98.56,129.21,129.21,0,0,0-53.63-62.56A164.46,164.46,0,0,0,1565,64.69Z" transform="translate(-4.98 -5)"/></g></g></g></g><path class="cls-37" d="M410,22.61" transform="translate(-4.98 -5)"/></svg>