<?xml version="1.0" encoding="utf-8"?>
<!-- Generator: Adobe Illustrator 24.2.0, SVG Export Plug-In . SVG Version: 6.00 Build 0)  -->
<svg version="1.1" id="Layer_1" xmlns="http://www.w3.org/2000/svg" xmlns:xlink="http://www.w3.org/1999/xlink" x="0px" y="0px"
	 viewBox="0 0 283.5 85" style="enable-background:new 0 0 283.5 85;" xml:space="preserve">
<style type="text/css">
	.st0{clip-path:url(#SVGID_2_);fill:#010101;}
	.st1{clip-path:url(#SVGID_2_);fill:#FFFFFF;}
	.st2{clip-path:url(#SVGID_2_);}
	.st3{fill:#010101;}
	.st4{clip-path:url(#SVGID_2_);fill:#0F8CCC;}
</style>
<g>
	<defs>
		<rect id="SVGID_1_" x="1.6" y="1.5" width="280.2" height="83.1"/>
	</defs>
	<clipPath id="SVGID_2_">
		<use xlink:href="#SVGID_1_"  style="overflow:visible;"/>
	</clipPath>
	<path class="st0" d="M66.6,17.4c-0.1,0.8,0,3.3,1.9,3c2-0.3,2.6-2.9,3.8-3.9c1.1-1,5.4-4.8,4.5-7.3c-0.9-2.5-4.8-2.9-8.6-2.3
		c-3.8,0.6-39.4,6.7-45.8,24.6c-1.1,4.6,3.5,4.4,4.5,4.6c0.8,0.1,3.6,1.2,6.2,4.7c2,2.4,14.6,1.5,14.6,1.5s15.8-0.6,17.8,2.7
		c2,3.3,0.1,5.6-8.6,9c-8.7,3.4-39.2,9.6-40.9,8.9c-1.7-0.7,6.1-4.2,5-7.1c-1-2.9-9.8,5.1-10,5.2c-0.3,0.3-1.9,2-2.2,3.6
		c-0.2,1.6-8.4,4.7-7.1,6.9c1.3,2.2,8.1,1.4,8.1,1.4c17.5-1.1,54.4-17.9,54.4-17.9s11.3-5.4,11.6-10.1c0.3-4.6,0.1-10.6-13.7-12.1
		c-13.8-1.5-33.3,1.4-33-2.9c0.3-4.3,7.2-8.6,23.8-11.7C69.5,15,66.7,16.1,66.6,17.4"/>
	<path class="st1" d="M158.3,47.7c1.3,0,1.9,1,1.9,2.2c0,2.1-1,5.4-3,5.4c-1.2,0-1.9-0.9-1.9-2.3C155.2,51.2,156.1,47.7,158.3,47.7
		 M158.9,43.8c-5.4,0-9,4.1-9,9.2c0,3.8,2.7,6.1,6.5,6.1c5.1,0,9-3.6,9-9.3C165.4,46.4,162.9,43.8,158.9,43.8"/>
	<g class="st2">
		<polygon class="st3" points="205.7,21.9 195.9,21.9 188.7,60.3 212.8,60.3 214.4,51.8 200,51.8 		"/>
		<path class="st3" d="M175.3,30.1h14l1.7-8.3h-23.9l-4,21.4c2.3,1.2,3.8,3.6,3.8,6.5c0,5-2.7,8.9-6.9,10.2l0,0.2h9.7l2.8-14.6h13.2
			l1.6-8.1h-13.3L175.3,30.1z"/>
		<path class="st3" d="M163.9,49.9c0-1.4-0.5-2.5-1.4-3.3l-1.9,10C162.6,55.2,163.9,52.8,163.9,49.9z"/>
		<polygon class="st3" points="227.4,52 228.8,44.8 242.3,44.8 243.9,36.6 230.3,36.6 231.6,30.1 245.9,30.1 247.5,21.9 223.4,21.9 
			216.1,60.3 241,60.3 242.6,52 		"/>
		<path class="st3" d="M281.8,21.9h-11.6L267,28c-1.1,2.1-2,3.9-3.5,6.8h-0.2c-0.6-2.5-1.1-4.2-1.7-6.6l-1.8-6.3h-10.3l6.6,18.7
			l-14.1,19.7h11.7l3.5-6.6c1.5-2.7,2.3-4.6,3.6-6.9h0.1c0.7,2.6,1.3,4.3,1.9,6.6l2.1,7h10.4l-7.2-19.5L281.8,21.9z"/>
	</g>
	<path class="st4" d="M157.2,47.1c1.5,0,2.1,1.2,2.1,2.6c0,2.4-1.1,6.2-3.5,6.2c-1.4,0-2.2-1-2.2-2.7
		C153.7,51.2,154.7,47.1,157.2,47.1 M158,42.7c-6.2,0-10.4,4.7-10.4,10.6c0,4.3,3.1,7,7.4,7c5.9,0,10.3-4.1,10.3-10.7
		C165.4,45.7,162.5,42.7,158,42.7 M139.9,39.9l-0.6,3.2h-2l-0.9,4.4h2.1l-1.2,5.9c-0.2,1.3-0.3,2.2-0.3,3.1c0,2.3,1.6,3.8,4.8,3.8
		c1.1,0,2.5-0.1,3.2-0.4l0.8-4.6c-0.5,0.1-1,0.1-1.4,0.1c-1.1,0-1.4-0.6-1.4-1.3c0-0.5,0.1-1.3,0.2-1.9l1-4.6h3.4l0.9-4.4H145
		l0.9-4.8L139.9,39.9z M130,48c0,1.1-1.2,1.6-4.8,1.5c0.2-1.1,1.2-2.7,3.3-2.7C129.5,46.9,130,47.4,130,48L130,48z M133.1,54.8
		c-1.5,0.7-3.1,1-4.8,1c-1.3,0-2.4-0.3-3-0.9c-0.3-0.3-0.5-0.8-0.6-1.1c6.9,0.2,10.8-1.5,10.8-5.7c0-3.5-2.7-5.4-6.2-5.4
		c-6.4,0-10.1,5.2-10.1,10.3c0,4.7,2.7,7.3,7.6,7.3c1.7,0,4.3-0.2,6.6-1.3L133.1,54.8z M106.8,51.4c0.5-2.5,1.9-3.9,3.4-3.9
		c1.2,0,1.8,1,1.8,2.4c0,2.6-1.8,6.1-4,6.1c-0.9,0-1.5-0.5-1.5-1.6c-0.1-0.6,0.1-1.2,0.2-1.8L106.8,51.4z M104.1,35.6l-3.3,16.5
		c-0.2,1.1-0.4,2.2-0.4,3.3c0,2.9,1.9,4.9,6.3,4.9c7.9,0,11.4-6.2,11.4-11.8c0-3-1.6-5.8-5.1-5.8c-2,0-3.8,0.8-4.9,1.9h-0.1l1.9-9
		H104.1z M92.4,50.6c-0.8,4-2.2,5-3.2,5c-1,0-1.7-0.8-1.7-2.4c0-2.5,1.8-6.1,4.5-6.1c0.3,0,0.7,0,1.1,0.1L92.4,50.6z M97.2,59.9
		c-0.1-2.2,0.3-5.6,0.6-7.5l1.8-8.8c-1.5-0.5-3.8-0.9-6-0.9c-8.7,0-12.2,6-12.2,11.6c0,3.7,2.2,6,5.2,6c1.8,0,3.9-0.8,5.3-3.3H92
		c0,1-0.1,2-0.1,2.9H97.2z"/>
	<path class="st4" d="M76,12.2c-0.1,0.8,0,3.3,1.9,3c2-0.3,2.6-2.9,3.8-3.9c1.1-1.1,5.4-4.8,4.5-7.3c-0.9-2.5-4.8-2.9-8.6-2.3
		c-3.8,0.6-39.4,6.7-45.8,24.6c-1.1,4.6,3.5,4.4,4.5,4.6c0.8,0.1,3.6,1.2,6.2,4.7c2,2.4,14.6,1.5,14.6,1.5s15.8-0.6,17.8,2.7
		c2,3.3,0.1,5.6-8.6,9c-8.7,3.4-39.2,9.6-40.9,8.9c-1.7-0.7,6.1-4.2,5-7.1c-1-2.9-9.8,5.1-10,5.2c-0.3,0.3-1.9,2-2.2,3.6
		c-0.2,1.6-8.4,4.7-7.1,6.8c1.3,2.2,8.1,1.3,8.1,1.4c17.5-1.1,54.4-17.9,54.4-17.9s11.3-5.4,11.6-10.1C85.5,35,85.3,29,71.5,27.6
		c-13.8-1.5-33.3,1.4-33-2.9c0.3-4.3,7.2-8.6,23.8-11.7C78.8,9.9,76.1,10.9,76,12.2"/>
</g>
</svg>
